<svg width="1440" height="1024" viewBox="0 0 1440 1024" fill="none" xmlns="http://www.w3.org/2000/svg">
<path d="M1029.72 410.933C1029.02 410.933 1028.44 410.279 1028.44 409.473C1028.44 408.668 1029.02 408.014 1029.72 408.014C1030.43 408.014 1031.01 408.668 1031.01 409.473C1031.01 410.279 1030.43 410.933 1029.72 410.933Z" fill="white" fill-opacity="0.68"/>
<path d="M989.691 407.048C989.691 407.575 990.078 408.015 990.552 408.015C991.027 408.015 991.413 407.575 991.413 407.048C991.413 406.52 991.027 406.081 990.552 406.081C990.078 406.081 989.691 406.52 989.691 407.048Z" fill="white" fill-opacity="0.68"/>
<path d="M1012.36 577.491C1011.73 577.14 1010.96 577.438 1010.64 578.159C1010.32 578.88 1010.59 579.759 1011.24 580.111C1011.89 580.462 1012.64 580.163 1012.96 579.443C1013.28 578.722 1013.01 577.843 1012.36 577.491Z" fill="white" fill-opacity="0.68"/>
<path d="M981.854 445.426C981.433 445.198 980.905 445.391 980.695 445.866C980.484 446.341 980.659 446.921 981.081 447.167C981.503 447.395 982.03 447.202 982.241 446.727C982.452 446.253 982.276 445.673 981.854 445.426Z" fill="white" fill-opacity="0.68"/>
<path d="M1161.77 552.617C1160.77 552.846 1160.1 553.936 1160.31 555.079C1160.5 556.221 1161.49 556.942 1162.49 556.731C1163.49 556.503 1164.16 555.413 1163.95 554.27C1163.75 553.145 1162.77 552.406 1161.77 552.617Z" fill="white" fill-opacity="0.68"/>
<g opacity="0.64">
<path d="M1394.13 499.483C1394.13 499.835 1394.37 500.116 1394.69 500.116C1395.01 500.116 1395.25 499.835 1395.25 499.483C1395.25 499.132 1395.01 498.85 1394.69 498.85C1394.37 498.85 1394.13 499.132 1394.13 499.483Z" fill="white" fill-opacity="0.68"/>
<path d="M1371.19 470.986C1371.19 471.214 1371.36 471.408 1371.56 471.408C1371.75 471.408 1371.93 471.214 1371.93 470.986C1371.93 470.757 1371.75 470.564 1371.56 470.564C1371.36 470.564 1371.19 470.757 1371.19 470.986Z" fill="white" fill-opacity="0.68"/>
<path d="M1365.61 531.692C1365.33 531.534 1365 531.675 1364.86 531.974C1364.72 532.272 1364.84 532.659 1365.12 532.817C1365.4 532.976 1365.74 532.835 1365.88 532.536C1366.02 532.22 1365.9 531.85 1365.61 531.692Z" fill="white" fill-opacity="0.68"/>
<path d="M1311.79 479.759C1311.6 479.653 1311.39 479.759 1311.3 479.952C1311.21 480.163 1311.3 480.409 1311.48 480.515C1311.67 480.62 1311.88 480.515 1311.97 480.321C1312.06 480.128 1311.97 479.864 1311.79 479.759Z" fill="white" fill-opacity="0.68"/>
<path d="M1432.54 529.62C1432.1 529.726 1431.82 530.2 1431.9 530.693C1431.99 531.185 1432.41 531.501 1432.85 531.413C1433.29 531.308 1433.57 530.833 1433.49 530.341C1433.4 529.849 1432.98 529.532 1432.54 529.62Z" fill="white" fill-opacity="0.68"/>
</g>
<g opacity="0.64">
<path d="M1056.39 503.303C1056.45 502.952 1056.24 502.635 1055.94 502.565C1055.64 502.512 1055.34 502.741 1055.29 503.075C1055.23 503.427 1055.44 503.743 1055.74 503.813C1056.04 503.884 1056.34 503.638 1056.39 503.303Z" fill="white" fill-opacity="0.68"/>
<path d="M1072.83 507.557C1072.86 507.329 1072.72 507.118 1072.53 507.065C1072.32 507.03 1072.13 507.188 1072.09 507.417C1072.06 507.645 1072.2 507.856 1072.39 507.909C1072.6 507.944 1072.79 507.786 1072.83 507.557Z" fill="white" fill-opacity="0.68"/>
<path d="M1114.83 507.274C1115.29 507.643 1115.92 507.52 1116.24 507.01C1116.57 506.5 1116.47 505.797 1116.01 505.428C1115.55 505.059 1114.92 505.182 1114.6 505.691C1114.27 506.201 1114.38 506.905 1114.83 507.274Z" fill="white" fill-opacity="0.68"/>
<path d="M1050.75 459.999C1051.05 460.245 1051.47 460.175 1051.7 459.823C1051.91 459.489 1051.85 459.015 1051.54 458.769C1051.24 458.522 1050.82 458.593 1050.59 458.944C1050.38 459.278 1050.43 459.753 1050.75 459.999Z" fill="white" fill-opacity="0.68"/>
<path d="M1023.07 466.259C1023.51 466.259 1023.86 465.837 1023.86 465.327C1023.86 464.817 1023.48 464.431 1023.04 464.448C1022.6 464.448 1022.25 464.87 1022.25 465.38C1022.25 465.89 1022.63 466.277 1023.07 466.259Z" fill="white" fill-opacity="0.68"/>
<path d="M1159.66 452.021C1159.66 452.654 1160.12 453.163 1160.68 453.163C1161.24 453.163 1161.7 452.654 1161.7 452.021C1161.7 451.388 1161.24 450.878 1160.68 450.878C1160.12 450.878 1159.66 451.388 1159.66 452.021Z" fill="white" fill-opacity="0.68"/>
<path d="M1196.23 530.922C1196.23 532.187 1197.14 533.207 1198.27 533.207C1199.39 533.207 1200.31 532.187 1200.31 530.922C1200.31 529.656 1199.39 528.636 1198.27 528.636C1197.14 528.636 1196.23 529.656 1196.23 530.922Z" fill="white" fill-opacity="0.68"/>
</g>
<g opacity="0.64">
<path d="M682.566 311.852C682.443 312.257 682.636 312.679 683.005 312.819C683.357 312.96 683.743 312.731 683.866 312.327C683.989 311.923 683.796 311.501 683.427 311.36C683.075 311.219 682.689 311.448 682.566 311.852Z" fill="white" fill-opacity="0.68"/>
<path d="M665.872 269.343C665.802 269.606 665.925 269.905 666.154 269.993C666.382 270.081 666.646 269.94 666.734 269.677C666.804 269.413 666.681 269.114 666.452 269.026C666.206 268.938 665.96 269.079 665.872 269.343Z" fill="white" fill-opacity="0.68"/>
<path d="M639.034 336.608C638.771 336.31 638.331 336.327 638.068 336.608C637.804 336.907 637.804 337.4 638.068 337.681C638.331 337.98 638.771 337.962 639.034 337.681C639.298 337.382 639.298 336.89 639.034 336.608Z" fill="white" fill-opacity="0.68"/>
<path d="M164.549 410.517C164.373 410.324 164.092 410.324 163.916 410.517C163.74 410.71 163.74 411.045 163.916 411.238C164.092 411.431 164.373 411.431 164.549 411.238C164.725 411.045 164.725 410.71 164.549 410.517Z" fill="white" fill-opacity="0.68"/>
<path d="M716.462 362.837C715.935 362.766 715.443 363.188 715.372 363.786C715.302 364.384 715.689 364.946 716.216 365.017C716.743 365.087 717.235 364.665 717.305 364.067C717.376 363.47 716.989 362.907 716.462 362.837Z" fill="white" fill-opacity="0.68"/>
</g>
<g opacity="0.64">
<path d="M55.1397 484.373C54.8761 484.672 54.8586 485.146 55.1397 485.445C55.4033 485.744 55.825 485.762 56.1062 485.445C56.3698 485.146 56.3874 484.672 56.1062 484.373C55.825 484.074 55.4209 484.056 55.1397 484.373Z" fill="white" fill-opacity="0.68"/>
<path d="M57.7019 437.992C57.5262 438.185 57.5262 438.519 57.7019 438.713C57.8777 438.906 58.1589 438.924 58.3346 438.713C58.5104 438.519 58.5104 438.203 58.3346 437.992C58.1589 437.781 57.8777 437.781 57.7019 437.992Z" fill="white" fill-opacity="0.68"/>
<path d="M6.37521 483.77C6.2522 483.365 5.88319 483.154 5.51416 483.278C5.16271 483.401 4.9694 483.84 5.07484 484.244C5.19785 484.649 5.56686 484.86 5.93589 484.737C6.28735 484.614 6.48065 484.174 6.37521 483.77Z" fill="white" fill-opacity="0.68"/>
<path d="M0.869862 387.517C0.79957 387.254 0.535966 387.113 0.307519 387.201C0.0790727 387.289 -0.0614625 387.57 0.0264015 387.852C0.0966927 388.115 0.36019 388.256 0.588637 388.168C0.817083 388.08 0.957726 387.799 0.869862 387.517Z" fill="white" fill-opacity="0.68"/>
<path d="M64.3803 547.205C63.941 546.853 63.3259 546.994 63.0272 547.486C62.7284 547.978 62.8339 548.664 63.2732 549.016C63.7125 549.367 64.3275 549.226 64.6262 548.734C64.925 548.242 64.8196 547.556 64.3803 547.205Z" fill="white" fill-opacity="0.68"/>
</g>
<g opacity="0.64">
<path d="M628.118 518.055C628.399 518.354 628.874 518.424 629.173 518.178C629.471 517.949 629.489 517.51 629.19 517.193C628.909 516.894 628.435 516.824 628.136 517.07C627.837 517.299 627.82 517.738 628.118 518.055Z" fill="white" fill-opacity="0.68"/>
<path d="M582.908 510.406C583.101 510.617 583.417 510.652 583.611 510.494C583.804 510.336 583.822 510.037 583.611 509.844C583.417 509.633 583.101 509.597 582.908 509.756C582.715 509.914 582.697 510.213 582.908 510.406Z" fill="white" fill-opacity="0.68"/>
<path d="M627.019 567.949C626.632 568.019 626.404 568.388 626.527 568.775C626.65 569.162 627.072 569.39 627.458 569.32C627.845 569.25 628.073 568.88 627.95 568.494C627.827 568.107 627.406 567.878 627.019 567.949Z" fill="white" fill-opacity="0.68"/>
<path d="M533.083 563.133C532.82 563.186 532.679 563.432 532.767 563.678C532.855 563.924 533.136 564.1 533.382 564.047C533.646 563.994 533.786 563.748 533.698 563.502C533.61 563.256 533.329 563.08 533.083 563.133Z" fill="white" fill-opacity="0.68"/>
<path d="M689.512 515.419C689.178 515.841 689.284 516.473 689.776 516.843C690.268 517.212 690.935 517.177 691.269 516.755C691.603 516.333 691.498 515.7 691.006 515.331C690.514 514.962 689.846 514.997 689.512 515.419Z" fill="white" fill-opacity="0.68"/>
</g>
<g opacity="0.64">
<path d="M410.437 564.901C410.174 565.2 410.156 565.674 410.437 565.973C410.718 566.272 411.123 566.29 411.404 565.973C411.667 565.674 411.685 565.2 411.404 564.901C411.14 564.602 410.718 564.584 410.437 564.901Z" fill="white" fill-opacity="0.68"/>
<path d="M412.983 518.52C412.807 518.713 412.807 519.03 412.983 519.241C413.158 519.434 413.439 519.452 413.615 519.241C413.791 519.047 413.791 518.713 413.615 518.52C413.439 518.326 413.158 518.309 412.983 518.52Z" fill="white" fill-opacity="0.68"/>
<path d="M359.403 553.103C359.28 552.699 358.911 552.488 358.542 552.611C358.19 552.734 357.997 553.173 358.102 553.578C358.225 553.982 358.594 554.193 358.963 554.07C359.315 553.947 359.508 553.507 359.403 553.103Z" fill="white" fill-opacity="0.68"/>
<path d="M356.158 468.064C356.087 467.8 355.824 467.66 355.595 467.748C355.367 467.835 355.226 468.117 355.314 468.398C355.385 468.662 355.648 468.802 355.877 468.714C356.105 468.627 356.246 468.345 356.158 468.064Z" fill="white" fill-opacity="0.68"/>
<path d="M399.429 607.597C398.99 607.245 398.374 607.386 398.076 607.878C397.777 608.371 397.882 609.056 398.322 609.408C398.761 609.759 399.376 609.619 399.675 609.127C399.974 608.634 399.868 607.949 399.429 607.597Z" fill="white" fill-opacity="0.68"/>
</g>
<g opacity="0.64">
<path d="M540.859 449.147C540.807 449.499 541.018 449.815 541.316 449.886C541.615 449.939 541.914 449.71 541.967 449.376C542.019 449.024 541.808 448.708 541.51 448.638C541.211 448.567 540.912 448.813 540.859 449.147Z" fill="white" fill-opacity="0.68"/>
<path d="M524.417 444.895C524.381 445.124 524.522 445.335 524.715 445.387C524.926 445.422 525.119 445.264 525.155 445.036C525.19 444.807 525.049 444.596 524.856 444.543C524.645 444.508 524.452 444.666 524.417 444.895Z" fill="white" fill-opacity="0.68"/>
<path d="M482.415 445.193C481.958 444.824 481.326 444.947 481.01 445.457C480.676 445.967 480.781 446.67 481.238 447.039C481.695 447.408 482.327 447.285 482.644 446.776C482.978 446.266 482.872 445.562 482.415 445.193Z" fill="white" fill-opacity="0.68"/>
<path d="M501.534 418.627C501.236 418.381 500.814 418.452 500.585 418.803C500.375 419.137 500.427 419.612 500.744 419.858C501.042 420.104 501.464 420.034 501.693 419.682C501.921 419.331 501.851 418.874 501.534 418.627Z" fill="white" fill-opacity="0.68"/>
<path d="M585.412 499.623C584.972 499.623 584.621 500.045 584.621 500.555C584.621 501.064 585.007 501.451 585.447 501.434C585.886 501.434 586.237 501.012 586.237 500.502C586.237 499.992 585.851 499.605 585.412 499.623Z" fill="white" fill-opacity="0.68"/>
<path d="M452.216 560.28C451.653 560.28 451.197 559.768 451.197 559.137C451.197 558.506 451.653 557.994 452.216 557.994C452.779 557.994 453.235 558.506 453.235 559.137C453.235 559.768 452.779 560.28 452.216 560.28Z" fill="white" fill-opacity="0.68"/>
<path d="M401.01 421.529C401.01 420.263 400.096 419.244 398.971 419.244C397.847 419.244 396.933 420.263 396.933 421.529C396.933 422.795 397.847 423.815 398.971 423.815C400.096 423.815 401.01 422.795 401.01 421.529Z" fill="white" fill-opacity="0.68"/>
</g>
<g opacity="0.64">
<path d="M1135.43 703.72C1135.34 703.386 1135.03 703.157 1134.73 703.228C1134.43 703.298 1134.25 703.614 1134.34 703.948C1134.43 704.283 1134.74 704.511 1135.04 704.441C1135.34 704.37 1135.52 704.054 1135.43 703.72Z" fill="white" fill-opacity="0.68"/>
<path d="M1152.23 701.154C1152.17 700.926 1151.96 700.785 1151.75 700.82C1151.54 700.855 1151.44 701.084 1151.49 701.312C1151.54 701.541 1151.75 701.682 1151.96 701.646C1152.17 701.611 1152.28 701.383 1152.23 701.154Z" fill="white" fill-opacity="0.68"/>
<path d="M1190.69 684.384C1191.25 684.542 1191.78 684.19 1191.89 683.592C1191.99 682.995 1191.61 682.379 1191.04 682.221C1190.48 682.063 1189.95 682.415 1189.85 683.012C1189.74 683.61 1190.13 684.225 1190.69 684.384Z" fill="white" fill-opacity="0.68"/>
<path d="M1183.68 716.293C1184.05 716.398 1184.42 716.17 1184.47 715.766C1184.54 715.361 1184.28 714.957 1183.91 714.851C1183.54 714.746 1183.17 714.974 1183.12 715.379C1183.05 715.783 1183.31 716.187 1183.68 716.293Z" fill="white" fill-opacity="0.68"/>
<path d="M1074.45 674.89C1074.86 674.697 1075.02 674.187 1074.8 673.73C1074.59 673.273 1074.1 673.062 1073.7 673.237C1073.29 673.431 1073.14 673.941 1073.35 674.398C1073.56 674.855 1074.05 675.066 1074.45 674.89Z" fill="white" fill-opacity="0.68"/>
<path d="M1172.24 568.226C1172.48 568.806 1173.12 569.105 1173.63 568.877C1174.14 568.648 1174.36 568.015 1174.1 567.435C1173.84 566.855 1173.22 566.556 1172.71 566.785C1172.2 567.013 1171.97 567.646 1172.24 568.226Z" fill="white" fill-opacity="0.68"/>
</g>
<g opacity="0.64">
<path d="M517.902 685.221C517.762 684.465 517.235 683.955 516.743 684.113C516.251 684.254 515.952 685.01 516.11 685.766C516.268 686.522 516.778 687.031 517.27 686.873C517.762 686.715 518.06 685.977 517.902 685.221Z" fill="white" fill-opacity="0.68"/>
<path d="M545.442 679.435C545.354 678.925 545.003 678.591 544.669 678.697C544.335 678.802 544.142 679.295 544.247 679.805C544.335 680.314 544.686 680.648 545.02 680.543C545.354 680.437 545.547 679.945 545.442 679.435Z" fill="white" fill-opacity="0.68"/>
<path d="M608.547 641.412C609.461 641.781 610.339 640.972 610.497 639.619C610.656 638.265 610.041 636.876 609.127 636.507C608.213 636.138 607.334 636.946 607.176 638.3C607.018 639.654 607.633 641.043 608.547 641.412Z" fill="white" fill-opacity="0.68"/>
<path d="M597.038 713.735C597.653 713.981 598.233 713.436 598.338 712.54C598.444 711.643 598.039 710.711 597.424 710.465C596.809 710.219 596.229 710.764 596.124 711.661C596.019 712.557 596.423 713.489 597.038 713.735Z" fill="white" fill-opacity="0.68"/>
<path d="M324.787 657.321C325.455 656.899 325.718 655.721 325.367 654.684C325.015 653.646 324.207 653.154 323.539 653.576C322.871 653.998 322.608 655.176 322.959 656.213C323.311 657.25 324.119 657.743 324.787 657.321Z" fill="white" fill-opacity="0.68"/>
<path d="M578.271 378.158C578.676 379.476 579.695 380.127 580.538 379.635C581.382 379.142 581.733 377.666 581.329 376.347C580.925 375.028 579.906 374.378 579.062 374.87C578.219 375.363 577.867 376.839 578.271 378.158Z" fill="white" fill-opacity="0.68"/>
</g>
<g opacity="0.64">
<path d="M814.739 576.401C815.038 576.207 815.143 575.838 814.985 575.575C814.827 575.311 814.458 575.24 814.159 575.434C813.86 575.627 813.755 575.996 813.913 576.26C814.071 576.524 814.44 576.594 814.739 576.401Z" fill="white" fill-opacity="0.68"/>
<path d="M822.451 591.468C822.645 591.345 822.715 591.099 822.61 590.923C822.504 590.748 822.258 590.712 822.065 590.836C821.872 590.959 821.801 591.205 821.907 591.381C822.012 591.556 822.258 591.591 822.451 591.468Z" fill="white" fill-opacity="0.68"/>
<path d="M850.571 622.514C850.589 623.094 851.098 623.481 851.696 623.393C852.293 623.305 852.768 622.743 852.732 622.162C852.715 621.582 852.205 621.196 851.608 621.283C851.01 621.371 850.536 621.934 850.571 622.514Z" fill="white" fill-opacity="0.68"/>
<path d="M817.919 625.926C817.919 626.313 818.27 626.577 818.674 626.507C819.079 626.436 819.377 626.085 819.377 625.698C819.377 625.311 819.026 625.047 818.622 625.118C818.218 625.188 817.919 625.54 817.919 625.926Z" fill="white" fill-opacity="0.68"/>
<path d="M823.04 509.752C823.338 510.069 823.901 510.069 824.27 509.717C824.639 509.383 824.691 508.838 824.393 508.504C824.094 508.187 823.532 508.188 823.163 508.539C822.794 508.873 822.741 509.418 823.04 509.752Z" fill="white" fill-opacity="0.68"/>
<path d="M955.564 568.561C955.089 568.983 955.001 569.651 955.37 570.073C955.74 570.495 956.425 570.495 956.899 570.073C957.374 569.651 957.462 568.983 957.093 568.561C956.724 568.139 956.038 568.139 955.564 568.561Z" fill="white" fill-opacity="0.68"/>
</g>
<g opacity="0.64">
<path d="M211.609 644.843C211.521 644.509 211.205 644.28 210.906 644.351C210.607 644.421 210.432 644.737 210.519 645.072C210.607 645.406 210.924 645.634 211.222 645.564C211.521 645.493 211.697 645.177 211.609 644.843Z" fill="white" fill-opacity="0.68"/>
<path d="M228.404 642.295C228.351 642.067 228.14 641.926 227.929 641.961C227.718 641.997 227.613 642.225 227.666 642.454C227.718 642.682 227.929 642.823 228.14 642.788C228.351 642.752 228.456 642.524 228.404 642.295Z" fill="white" fill-opacity="0.68"/>
<path d="M266.871 625.502C267.434 625.66 267.961 625.308 268.066 624.711C268.172 624.113 267.785 623.498 267.223 623.339C266.661 623.181 266.133 623.533 266.028 624.131C265.923 624.728 266.309 625.344 266.871 625.502Z" fill="white" fill-opacity="0.68"/>
<path d="M150.639 616.012C151.043 615.818 151.202 615.309 150.991 614.851C150.78 614.394 150.288 614.183 149.884 614.359C149.479 614.553 149.321 615.062 149.532 615.52C149.743 615.977 150.235 616.188 150.639 616.012Z" fill="white" fill-opacity="0.68"/>
<path d="M678.659 352.865C678.905 353.445 679.537 353.744 680.047 353.516C680.556 353.287 680.785 352.654 680.521 352.074C680.258 351.494 679.643 351.195 679.133 351.424C678.623 351.652 678.395 352.285 678.659 352.865Z" fill="white" fill-opacity="0.68"/>
</g>
<path d="M882.806 469.423C882.296 468.28 881.066 467.823 880.047 468.403C879.028 468.983 878.624 470.372 879.133 471.515C879.643 472.657 880.873 473.114 881.892 472.534C882.911 471.954 883.316 470.565 882.806 469.423Z" fill="white" fill-opacity="0.68"/>
<path d="M736.143 470.777C736.864 470.777 737.426 470.109 737.426 469.3C737.426 468.491 736.829 467.858 736.126 467.858C735.405 467.858 734.843 468.526 734.843 469.335C734.843 470.144 735.44 470.777 736.143 470.777Z" fill="white" fill-opacity="0.68"/>
<path d="M874.429 516.645C874.903 516.645 875.29 516.206 875.272 515.661C875.272 515.133 874.868 514.694 874.393 514.711C873.919 514.711 873.532 515.151 873.55 515.696C873.55 516.223 873.954 516.663 874.429 516.645Z" fill="white" fill-opacity="0.68"/>
<path d="M582.444 523.852C581.987 522.832 580.88 522.428 579.966 522.938C579.052 523.447 578.701 524.696 579.158 525.715C579.615 526.735 580.722 527.139 581.635 526.63C582.549 526.12 582.901 524.871 582.444 523.852Z" fill="white" fill-opacity="0.68"/>
<path d="M440.426 650.643C440.953 650.643 441.375 650.151 441.375 649.553C441.375 648.955 440.935 648.48 440.408 648.48C439.881 648.48 439.459 648.973 439.459 649.57C439.459 650.168 439.899 650.643 440.426 650.643Z" fill="white" fill-opacity="0.68"/>
<path d="M499.619 471.078C500.638 471.078 501.446 470.128 501.429 468.986C501.429 467.843 500.585 466.929 499.566 466.946C498.547 466.964 497.738 467.895 497.756 469.038C497.756 470.181 498.599 471.095 499.619 471.078Z" fill="white" fill-opacity="0.68"/>
<path d="M160.498 532.505C160.973 532.083 161.061 531.309 160.692 530.782C160.323 530.254 159.637 530.149 159.163 530.571C158.689 530.993 158.601 531.766 158.97 532.294C159.339 532.821 160.024 532.927 160.498 532.505Z" fill="white" fill-opacity="0.68"/>
<path d="M323.303 773.249C323.83 773.249 324.252 772.757 324.252 772.159C324.252 771.561 323.812 771.087 323.285 771.087C322.758 771.087 322.336 771.579 322.336 772.177C322.336 772.774 322.775 773.249 323.303 773.249Z" fill="white" fill-opacity="0.68"/>
<path d="M368.425 583.133C369.444 583.133 370.253 582.184 370.235 581.041C370.235 579.898 369.392 578.984 368.372 579.001C367.353 579.019 366.545 579.951 366.562 581.094C366.562 582.236 367.406 583.15 368.425 583.133Z" fill="white" fill-opacity="0.68"/>
<path d="M43.3585 655.11C43.8329 654.688 43.9208 653.914 43.5517 653.387C43.1827 652.859 42.4974 652.754 42.0229 653.176C41.5484 653.598 41.4606 654.371 41.8296 654.899C42.1987 655.426 42.884 655.532 43.3585 655.11Z" fill="white" fill-opacity="0.68"/>
<path d="M1032.72 661.933C1032.02 661.933 1031.44 661.279 1031.44 660.473C1031.44 659.668 1032.02 659.014 1032.72 659.014C1033.43 659.014 1034.01 659.668 1034.01 660.473C1034.01 661.279 1033.43 661.933 1032.72 661.933Z" fill="white" fill-opacity="0.68"/>
<path d="M992.691 658.048C992.691 658.575 993.078 659.015 993.552 659.015C994.027 659.015 994.413 658.575 994.413 658.048C994.413 657.52 994.027 657.081 993.552 657.081C993.078 657.081 992.691 657.52 992.691 658.048Z" fill="white" fill-opacity="0.68"/>
<path d="M1015.36 828.491C1014.73 828.14 1013.96 828.438 1013.64 829.159C1013.32 829.88 1013.59 830.759 1014.24 831.111C1014.89 831.462 1015.64 831.163 1015.96 830.443C1016.28 829.722 1016.01 828.843 1015.36 828.491Z" fill="white" fill-opacity="0.68"/>
<path d="M984.854 696.426C984.433 696.198 983.905 696.391 983.695 696.866C983.484 697.341 983.659 697.921 984.081 698.167C984.503 698.395 985.03 698.202 985.241 697.727C985.452 697.253 985.276 696.673 984.854 696.426Z" fill="white" fill-opacity="0.68"/>
<path d="M1164.77 803.617C1163.77 803.846 1163.1 804.936 1163.31 806.079C1163.5 807.221 1164.49 807.942 1165.49 807.731C1166.49 807.503 1167.16 806.413 1166.95 805.27C1166.75 804.145 1165.77 803.406 1164.77 803.617Z" fill="white" fill-opacity="0.68"/>
<g opacity="0.64">
<path d="M1397.13 750.483C1397.13 750.835 1397.37 751.116 1397.69 751.116C1398.01 751.116 1398.25 750.835 1398.25 750.483C1398.25 750.132 1398.01 749.85 1397.69 749.85C1397.37 749.85 1397.13 750.132 1397.13 750.483Z" fill="white" fill-opacity="0.68"/>
<path d="M1374.19 721.986C1374.19 722.214 1374.36 722.408 1374.56 722.408C1374.75 722.408 1374.93 722.214 1374.93 721.986C1374.93 721.757 1374.75 721.564 1374.56 721.564C1374.36 721.564 1374.19 721.757 1374.19 721.986Z" fill="white" fill-opacity="0.68"/>
<path d="M1368.61 782.692C1368.33 782.534 1368 782.675 1367.86 782.974C1367.72 783.272 1367.84 783.659 1368.12 783.817C1368.4 783.976 1368.74 783.835 1368.88 783.536C1369.02 783.22 1368.9 782.85 1368.61 782.692Z" fill="white" fill-opacity="0.68"/>
<path d="M1314.79 730.759C1314.6 730.653 1314.39 730.759 1314.3 730.952C1314.21 731.163 1314.3 731.409 1314.48 731.515C1314.67 731.62 1314.88 731.515 1314.97 731.321C1315.06 731.128 1314.97 730.864 1314.79 730.759Z" fill="white" fill-opacity="0.68"/>
<path d="M1435.54 780.62C1435.1 780.726 1434.82 781.2 1434.9 781.693C1434.99 782.185 1435.41 782.501 1435.85 782.413C1436.29 782.308 1436.57 781.833 1436.49 781.341C1436.4 780.849 1435.98 780.532 1435.54 780.62Z" fill="white" fill-opacity="0.68"/>
</g>
<g opacity="0.64">
<path d="M1059.39 754.303C1059.45 753.952 1059.24 753.635 1058.94 753.565C1058.64 753.512 1058.34 753.741 1058.29 754.075C1058.23 754.427 1058.44 754.743 1058.74 754.813C1059.04 754.884 1059.34 754.638 1059.39 754.303Z" fill="white" fill-opacity="0.68"/>
<path d="M1075.83 758.557C1075.86 758.329 1075.72 758.118 1075.53 758.065C1075.32 758.03 1075.13 758.188 1075.09 758.417C1075.06 758.645 1075.2 758.856 1075.39 758.909C1075.6 758.944 1075.79 758.786 1075.83 758.557Z" fill="white" fill-opacity="0.68"/>
<path d="M1117.83 758.274C1118.29 758.643 1118.92 758.52 1119.24 758.01C1119.57 757.5 1119.47 756.797 1119.01 756.428C1118.55 756.059 1117.92 756.182 1117.6 756.691C1117.27 757.201 1117.38 757.905 1117.83 758.274Z" fill="white" fill-opacity="0.68"/>
<path d="M1053.75 710.999C1054.05 711.245 1054.47 711.175 1054.7 710.823C1054.91 710.489 1054.85 710.015 1054.54 709.769C1054.24 709.522 1053.82 709.593 1053.59 709.944C1053.38 710.278 1053.43 710.753 1053.75 710.999Z" fill="white" fill-opacity="0.68"/>
<path d="M1026.07 717.259C1026.51 717.259 1026.86 716.837 1026.86 716.327C1026.86 715.817 1026.48 715.431 1026.04 715.448C1025.6 715.448 1025.25 715.87 1025.25 716.38C1025.25 716.89 1025.63 717.277 1026.07 717.259Z" fill="white" fill-opacity="0.68"/>
<path d="M1162.66 703.021C1162.66 703.654 1163.12 704.163 1163.68 704.163C1164.24 704.163 1164.7 703.654 1164.7 703.021C1164.7 702.388 1164.24 701.878 1163.68 701.878C1163.12 701.878 1162.66 702.388 1162.66 703.021Z" fill="white" fill-opacity="0.68"/>
<path d="M1199.23 781.922C1199.23 783.187 1200.14 784.207 1201.27 784.207C1202.39 784.207 1203.31 783.187 1203.31 781.922C1203.31 780.656 1202.39 779.636 1201.27 779.636C1200.14 779.636 1199.23 780.656 1199.23 781.922Z" fill="white" fill-opacity="0.68"/>
</g>
<g opacity="0.64">
<path d="M685.566 562.852C685.443 563.257 685.636 563.679 686.005 563.819C686.357 563.96 686.743 563.731 686.866 563.327C686.989 562.923 686.796 562.501 686.427 562.36C686.075 562.219 685.689 562.448 685.566 562.852Z" fill="white" fill-opacity="0.68"/>
<path d="M668.872 520.343C668.802 520.606 668.925 520.905 669.154 520.993C669.382 521.081 669.646 520.94 669.734 520.677C669.804 520.413 669.681 520.114 669.452 520.026C669.206 519.938 668.96 520.079 668.872 520.343Z" fill="white" fill-opacity="0.68"/>
<path d="M642.034 587.608C641.771 587.31 641.331 587.327 641.068 587.608C640.804 587.907 640.804 588.4 641.068 588.681C641.331 588.98 641.771 588.962 642.034 588.681C642.298 588.382 642.298 587.89 642.034 587.608Z" fill="white" fill-opacity="0.68"/>
<path d="M167.549 661.517C167.373 661.324 167.092 661.324 166.916 661.517C166.74 661.71 166.74 662.045 166.916 662.238C167.092 662.431 167.373 662.431 167.549 662.238C167.725 662.045 167.725 661.71 167.549 661.517Z" fill="white" fill-opacity="0.68"/>
<path d="M719.462 613.837C718.935 613.767 718.443 614.188 718.372 614.786C718.302 615.384 718.689 615.946 719.216 616.017C719.743 616.087 720.235 615.665 720.305 615.067C720.376 614.47 719.989 613.907 719.462 613.837Z" fill="white" fill-opacity="0.68"/>
</g>
<g opacity="0.64">
<path d="M58.1397 735.373C57.8761 735.672 57.8586 736.146 58.1397 736.445C58.4033 736.744 58.825 736.761 59.1062 736.445C59.3698 736.146 59.3874 735.672 59.1062 735.373C58.825 735.074 58.4209 735.056 58.1397 735.373Z" fill="white" fill-opacity="0.68"/>
<path d="M60.7019 688.992C60.5262 689.185 60.5262 689.519 60.7019 689.713C60.8777 689.906 61.1589 689.924 61.3346 689.713C61.5104 689.519 61.5104 689.203 61.3346 688.992C61.1589 688.781 60.8777 688.781 60.7019 688.992Z" fill="white" fill-opacity="0.68"/>
<path d="M9.37521 734.77C9.2522 734.365 8.88319 734.154 8.51416 734.277C8.16271 734.401 7.9694 734.84 8.07484 735.244C8.19785 735.649 8.56686 735.86 8.93589 735.737C9.28735 735.614 9.48065 735.174 9.37521 734.77Z" fill="white" fill-opacity="0.68"/>
<path d="M3.86986 638.517C3.79957 638.254 3.53597 638.113 3.30752 638.201C3.07907 638.289 2.93854 638.57 3.0264 638.852C3.09669 639.115 3.36019 639.256 3.58864 639.168C3.81708 639.08 3.95773 638.799 3.86986 638.517Z" fill="white" fill-opacity="0.68"/>
<path d="M67.3803 798.205C66.941 797.853 66.3259 797.994 66.0272 798.486C65.7284 798.978 65.8339 799.664 66.2732 800.016C66.7125 800.367 67.3275 800.226 67.6262 799.734C67.925 799.242 67.8196 798.556 67.3803 798.205Z" fill="white" fill-opacity="0.68"/>
</g>
<g opacity="0.64">
<path d="M631.118 769.055C631.399 769.354 631.874 769.424 632.173 769.178C632.471 768.949 632.489 768.51 632.19 768.193C631.909 767.894 631.435 767.824 631.136 768.07C630.837 768.299 630.82 768.738 631.118 769.055Z" fill="white" fill-opacity="0.68"/>
<path d="M585.908 761.406C586.101 761.617 586.417 761.652 586.611 761.494C586.804 761.336 586.822 761.037 586.611 760.844C586.417 760.633 586.101 760.597 585.908 760.756C585.715 760.914 585.697 761.213 585.908 761.406Z" fill="white" fill-opacity="0.68"/>
<path d="M630.019 818.949C629.632 819.019 629.404 819.388 629.527 819.775C629.65 820.162 630.072 820.39 630.458 820.32C630.845 820.25 631.073 819.88 630.95 819.494C630.827 819.107 630.406 818.878 630.019 818.949Z" fill="white" fill-opacity="0.68"/>
<path d="M536.083 814.133C535.82 814.186 535.679 814.432 535.767 814.678C535.855 814.924 536.136 815.1 536.382 815.047C536.646 814.994 536.786 814.748 536.698 814.502C536.61 814.256 536.329 814.08 536.083 814.133Z" fill="white" fill-opacity="0.68"/>
<path d="M692.512 766.419C692.178 766.841 692.284 767.474 692.776 767.843C693.268 768.212 693.935 768.177 694.269 767.755C694.603 767.333 694.498 766.7 694.006 766.331C693.514 765.962 692.846 765.997 692.512 766.419Z" fill="white" fill-opacity="0.68"/>
</g>
<g opacity="0.64">
<path d="M413.437 815.901C413.174 816.2 413.156 816.674 413.437 816.973C413.718 817.272 414.123 817.29 414.404 816.973C414.667 816.674 414.685 816.2 414.404 815.901C414.14 815.602 413.718 815.584 413.437 815.901Z" fill="white" fill-opacity="0.68"/>
<path d="M415.983 769.52C415.807 769.713 415.807 770.03 415.983 770.241C416.158 770.434 416.439 770.452 416.615 770.241C416.791 770.047 416.791 769.713 416.615 769.52C416.439 769.326 416.158 769.309 415.983 769.52Z" fill="white" fill-opacity="0.68"/>
<path d="M362.403 804.103C362.28 803.699 361.911 803.488 361.542 803.611C361.19 803.734 360.997 804.173 361.102 804.578C361.225 804.982 361.594 805.193 361.963 805.07C362.315 804.947 362.508 804.507 362.403 804.103Z" fill="white" fill-opacity="0.68"/>
<path d="M359.158 719.064C359.087 718.8 358.824 718.66 358.595 718.748C358.367 718.835 358.226 719.117 358.314 719.398C358.385 719.662 358.648 719.802 358.877 719.714C359.105 719.627 359.246 719.345 359.158 719.064Z" fill="white" fill-opacity="0.68"/>
<path d="M402.429 858.597C401.99 858.245 401.374 858.386 401.076 858.878C400.777 859.371 400.882 860.056 401.322 860.408C401.761 860.759 402.376 860.619 402.675 860.127C402.974 859.634 402.868 858.949 402.429 858.597Z" fill="white" fill-opacity="0.68"/>
</g>
<g opacity="0.64">
<path d="M543.859 700.147C543.807 700.499 544.018 700.815 544.316 700.886C544.615 700.939 544.914 700.71 544.967 700.376C545.019 700.024 544.808 699.708 544.51 699.638C544.211 699.567 543.912 699.813 543.859 700.147Z" fill="white" fill-opacity="0.68"/>
<path d="M527.417 695.895C527.381 696.124 527.522 696.334 527.715 696.387C527.926 696.422 528.119 696.264 528.155 696.036C528.19 695.807 528.049 695.596 527.856 695.543C527.645 695.508 527.452 695.666 527.417 695.895Z" fill="white" fill-opacity="0.68"/>
<path d="M485.415 696.193C484.958 695.824 484.326 695.947 484.01 696.457C483.676 696.967 483.781 697.67 484.238 698.039C484.695 698.408 485.327 698.285 485.644 697.776C485.978 697.266 485.872 696.562 485.415 696.193Z" fill="white" fill-opacity="0.68"/>
<path d="M504.534 669.627C504.236 669.381 503.814 669.452 503.585 669.803C503.375 670.137 503.427 670.612 503.744 670.858C504.042 671.104 504.464 671.034 504.693 670.682C504.921 670.331 504.851 669.874 504.534 669.627Z" fill="white" fill-opacity="0.68"/>
<path d="M588.412 750.623C587.972 750.623 587.621 751.045 587.621 751.555C587.621 752.064 588.007 752.451 588.447 752.434C588.886 752.434 589.237 752.012 589.237 751.502C589.237 750.992 588.851 750.605 588.412 750.623Z" fill="white" fill-opacity="0.68"/>
<path d="M455.216 811.28C454.653 811.28 454.197 810.768 454.197 810.137C454.197 809.506 454.653 808.994 455.216 808.994C455.779 808.994 456.235 809.506 456.235 810.137C456.235 810.768 455.779 811.28 455.216 811.28Z" fill="white" fill-opacity="0.68"/>
<path d="M404.01 672.529C404.01 671.263 403.096 670.244 401.971 670.244C400.847 670.244 399.933 671.263 399.933 672.529C399.933 673.795 400.847 674.815 401.971 674.815C403.096 674.815 404.01 673.795 404.01 672.529Z" fill="white" fill-opacity="0.68"/>
</g>
<g opacity="0.64">
<path d="M1138.43 954.72C1138.34 954.386 1138.03 954.157 1137.73 954.228C1137.43 954.298 1137.25 954.614 1137.34 954.948C1137.43 955.282 1137.74 955.511 1138.04 955.441C1138.34 955.37 1138.52 955.054 1138.43 954.72Z" fill="white" fill-opacity="0.68"/>
<path d="M1155.23 952.154C1155.17 951.926 1154.96 951.785 1154.75 951.82C1154.54 951.855 1154.44 952.084 1154.49 952.312C1154.54 952.541 1154.75 952.682 1154.96 952.646C1155.17 952.611 1155.28 952.383 1155.23 952.154Z" fill="white" fill-opacity="0.68"/>
<path d="M1193.69 935.384C1194.25 935.542 1194.78 935.19 1194.89 934.592C1194.99 933.995 1194.61 933.379 1194.04 933.221C1193.48 933.063 1192.95 933.415 1192.85 934.012C1192.74 934.61 1193.13 935.225 1193.69 935.384Z" fill="white" fill-opacity="0.68"/>
<path d="M1186.68 967.293C1187.05 967.398 1187.42 967.17 1187.47 966.766C1187.54 966.361 1187.28 965.957 1186.91 965.851C1186.54 965.746 1186.17 965.974 1186.12 966.379C1186.05 966.783 1186.31 967.187 1186.68 967.293Z" fill="white" fill-opacity="0.68"/>
<path d="M1077.45 925.89C1077.86 925.697 1078.02 925.187 1077.8 924.73C1077.59 924.273 1077.1 924.062 1076.7 924.237C1076.29 924.431 1076.14 924.941 1076.35 925.398C1076.56 925.855 1077.05 926.066 1077.45 925.89Z" fill="white" fill-opacity="0.68"/>
<path d="M1175.24 819.226C1175.48 819.806 1176.12 820.105 1176.63 819.877C1177.14 819.648 1177.36 819.015 1177.1 818.435C1176.84 817.855 1176.22 817.556 1175.71 817.785C1175.2 818.013 1174.97 818.646 1175.24 819.226Z" fill="white" fill-opacity="0.68"/>
</g>
<g opacity="0.64">
<path d="M520.902 936.221C520.762 935.465 520.235 934.955 519.743 935.113C519.251 935.254 518.952 936.01 519.11 936.766C519.268 937.522 519.778 938.031 520.27 937.873C520.762 937.715 521.06 936.977 520.902 936.221Z" fill="white" fill-opacity="0.68"/>
<path d="M548.442 930.435C548.354 929.925 548.003 929.591 547.669 929.697C547.335 929.802 547.142 930.295 547.247 930.805C547.335 931.314 547.686 931.648 548.02 931.543C548.354 931.437 548.547 930.945 548.442 930.435Z" fill="white" fill-opacity="0.68"/>
<path d="M611.547 892.412C612.461 892.781 613.339 891.972 613.497 890.619C613.656 889.265 613.041 887.876 612.127 887.507C611.213 887.138 610.334 887.946 610.176 889.3C610.018 890.654 610.633 892.043 611.547 892.412Z" fill="white" fill-opacity="0.68"/>
<path d="M600.038 964.735C600.653 964.981 601.233 964.436 601.338 963.54C601.444 962.643 601.039 961.711 600.424 961.465C599.809 961.219 599.229 961.764 599.124 962.661C599.019 963.557 599.423 964.489 600.038 964.735Z" fill="white" fill-opacity="0.68"/>
<path d="M327.787 908.321C328.455 907.899 328.718 906.721 328.367 905.684C328.015 904.646 327.207 904.154 326.539 904.576C325.871 904.998 325.608 906.176 325.959 907.213C326.311 908.25 327.119 908.743 327.787 908.321Z" fill="white" fill-opacity="0.68"/>
<path d="M581.271 629.158C581.676 630.476 582.695 631.127 583.538 630.635C584.382 630.142 584.733 628.666 584.329 627.347C583.925 626.028 582.906 625.378 582.062 625.87C581.219 626.363 580.867 627.839 581.271 629.158Z" fill="white" fill-opacity="0.68"/>
</g>
<g opacity="0.64">
<path d="M817.739 827.401C818.038 827.207 818.143 826.838 817.985 826.575C817.827 826.311 817.458 826.241 817.159 826.434C816.86 826.627 816.755 826.996 816.913 827.26C817.071 827.524 817.44 827.594 817.739 827.401Z" fill="white" fill-opacity="0.68"/>
<path d="M825.451 842.468C825.645 842.345 825.715 842.099 825.61 841.923C825.504 841.748 825.258 841.712 825.065 841.836C824.872 841.959 824.801 842.205 824.907 842.381C825.012 842.556 825.258 842.591 825.451 842.468Z" fill="white" fill-opacity="0.68"/>
<path d="M853.571 873.514C853.589 874.094 854.098 874.481 854.696 874.393C855.293 874.305 855.768 873.743 855.732 873.162C855.715 872.582 855.205 872.196 854.608 872.283C854.01 872.371 853.536 872.934 853.571 873.514Z" fill="white" fill-opacity="0.68"/>
<path d="M820.919 876.926C820.919 877.313 821.27 877.577 821.674 877.507C822.079 877.436 822.377 877.085 822.377 876.698C822.377 876.311 822.026 876.047 821.622 876.118C821.218 876.188 820.919 876.54 820.919 876.926Z" fill="white" fill-opacity="0.68"/>
<path d="M826.04 760.752C826.338 761.069 826.901 761.069 827.27 760.717C827.639 760.383 827.691 759.838 827.393 759.504C827.094 759.187 826.532 759.188 826.163 759.539C825.794 759.873 825.741 760.418 826.04 760.752Z" fill="white" fill-opacity="0.68"/>
<path d="M958.564 819.561C958.089 819.983 958.001 820.651 958.37 821.073C958.74 821.495 959.425 821.495 959.899 821.073C960.374 820.651 960.462 819.983 960.093 819.561C959.724 819.139 959.038 819.139 958.564 819.561Z" fill="white" fill-opacity="0.68"/>
</g>
<g opacity="0.64">
<path d="M214.609 895.843C214.521 895.509 214.205 895.28 213.906 895.351C213.607 895.421 213.432 895.737 213.519 896.072C213.607 896.406 213.924 896.634 214.222 896.564C214.521 896.493 214.697 896.177 214.609 895.843Z" fill="white" fill-opacity="0.68"/>
<path d="M231.404 893.295C231.351 893.067 231.14 892.926 230.929 892.961C230.718 892.997 230.613 893.225 230.666 893.454C230.718 893.682 230.929 893.823 231.14 893.788C231.351 893.752 231.456 893.524 231.404 893.295Z" fill="white" fill-opacity="0.68"/>
<path d="M269.871 876.502C270.434 876.66 270.961 876.308 271.066 875.711C271.172 875.113 270.785 874.498 270.223 874.339C269.661 874.181 269.133 874.533 269.028 875.131C268.923 875.728 269.309 876.344 269.871 876.502Z" fill="white" fill-opacity="0.68"/>
<path d="M153.639 867.012C154.043 866.818 154.202 866.309 153.991 865.851C153.78 865.394 153.288 865.183 152.884 865.359C152.479 865.553 152.321 866.062 152.532 866.52C152.743 866.977 153.235 867.188 153.639 867.012Z" fill="white" fill-opacity="0.68"/>
<path d="M681.659 603.865C681.905 604.445 682.537 604.744 683.047 604.516C683.556 604.287 683.785 603.654 683.521 603.074C683.258 602.494 682.643 602.195 682.133 602.424C681.623 602.652 681.395 603.285 681.659 603.865Z" fill="white" fill-opacity="0.68"/>
</g>
<path d="M885.806 720.423C885.296 719.28 884.066 718.823 883.047 719.403C882.028 719.983 881.624 721.372 882.133 722.515C882.643 723.657 883.873 724.114 884.892 723.534C885.911 722.954 886.316 721.565 885.806 720.423Z" fill="white" fill-opacity="0.68"/>
<path d="M739.143 721.777C739.864 721.777 740.426 721.109 740.426 720.3C740.426 719.491 739.829 718.858 739.126 718.858C738.405 718.858 737.843 719.526 737.843 720.335C737.843 721.144 738.44 721.777 739.143 721.777Z" fill="white" fill-opacity="0.68"/>
<path d="M877.429 767.645C877.903 767.645 878.29 767.206 878.272 766.661C878.272 766.133 877.868 765.694 877.393 765.711C876.919 765.711 876.532 766.151 876.55 766.696C876.55 767.223 876.954 767.663 877.429 767.645Z" fill="white" fill-opacity="0.68"/>
<path d="M711.375 549.821C710.69 548.292 709.02 547.676 707.667 548.45C706.297 549.223 705.752 551.105 706.455 552.634C707.14 554.164 708.81 554.779 710.163 554.005C711.533 553.232 712.078 551.368 711.375 549.821Z" fill="white" fill-opacity="0.68"/>
<path d="M585.444 774.852C584.987 773.832 583.88 773.428 582.966 773.938C582.052 774.447 581.701 775.696 582.158 776.715C582.615 777.735 583.722 778.139 584.635 777.63C585.549 777.12 585.901 775.871 585.444 774.852Z" fill="white" fill-opacity="0.68"/>
<path d="M443.426 901.643C443.953 901.643 444.375 901.151 444.375 900.553C444.375 899.955 443.935 899.48 443.408 899.48C442.881 899.48 442.459 899.973 442.459 900.57C442.459 901.168 442.899 901.643 443.426 901.643Z" fill="white" fill-opacity="0.68"/>
<path d="M502.619 722.078C503.638 722.078 504.446 721.128 504.429 719.986C504.429 718.843 503.585 717.929 502.566 717.946C501.547 717.964 500.738 718.895 500.756 720.038C500.756 721.181 501.599 722.095 502.619 722.078Z" fill="white" fill-opacity="0.68"/>
<path d="M163.498 783.505C163.973 783.083 164.061 782.309 163.692 781.782C163.323 781.254 162.637 781.149 162.163 781.571C161.689 781.993 161.601 782.766 161.97 783.294C162.339 783.821 163.024 783.927 163.498 783.505Z" fill="white" fill-opacity="0.68"/>
<path d="M326.303 1024.25C326.83 1024.25 327.252 1023.76 327.252 1023.16C327.252 1022.56 326.812 1022.09 326.285 1022.09C325.758 1022.09 325.336 1022.58 325.336 1023.18C325.336 1023.77 325.775 1024.25 326.303 1024.25Z" fill="white" fill-opacity="0.68"/>
<path d="M371.425 834.133C372.444 834.133 373.253 833.184 373.235 832.041C373.235 830.898 372.392 829.984 371.372 830.001C370.353 830.019 369.545 830.951 369.562 832.094C369.562 833.236 370.406 834.15 371.425 834.133Z" fill="white" fill-opacity="0.68"/>
<path d="M46.3585 906.11C46.8329 905.688 46.9208 904.914 46.5517 904.387C46.1827 903.859 45.4974 903.754 45.0229 904.176C44.5484 904.598 44.4606 905.371 44.8296 905.899C45.1987 906.426 45.884 906.532 46.3585 906.11Z" fill="white" fill-opacity="0.68"/>
<path d="M1035.72 48.586C1035.02 48.586 1034.44 47.9327 1034.44 47.1269C1034.44 46.321 1035.02 45.6676 1035.72 45.6676C1036.43 45.6676 1037.01 46.321 1037.01 47.1269C1037.01 47.9327 1036.43 48.586 1035.72 48.586Z" fill="white" fill-opacity="0.68"/>
<path d="M995.691 44.701C995.691 45.2285 996.078 45.668 996.552 45.668C997.027 45.668 997.413 45.2285 997.413 44.701C997.413 44.1736 997.027 43.7341 996.552 43.7341C996.078 43.7341 995.691 44.1736 995.691 44.701Z" fill="white" fill-opacity="0.68"/>
<path d="M1018.36 215.145C1017.73 214.793 1016.96 215.092 1016.64 215.813C1016.32 216.533 1016.59 217.412 1017.24 217.764C1017.89 218.116 1018.64 217.817 1018.96 217.096C1019.28 216.375 1019.01 215.496 1018.36 215.145Z" fill="white" fill-opacity="0.68"/>
<path d="M987.854 83.0798C987.433 82.8512 986.905 83.0446 986.695 83.5193C986.484 83.994 986.659 84.5741 987.081 84.8203C987.503 85.0488 988.03 84.8554 988.241 84.3807C988.452 83.9061 988.276 83.3259 987.854 83.0798Z" fill="white" fill-opacity="0.68"/>
<path d="M1167.77 190.271C1166.77 190.499 1166.1 191.589 1166.31 192.732C1166.5 193.875 1167.49 194.596 1168.49 194.385C1169.49 194.156 1170.16 193.066 1169.95 191.923C1169.75 190.798 1168.77 190.06 1167.77 190.271Z" fill="white" fill-opacity="0.68"/>
<g opacity="0.64">
<path d="M1400.13 137.137C1400.13 137.488 1400.37 137.77 1400.69 137.77C1401.01 137.77 1401.25 137.488 1401.25 137.137C1401.25 136.785 1401.01 136.504 1400.69 136.504C1400.37 136.504 1400.13 136.785 1400.13 137.137Z" fill="white" fill-opacity="0.68"/>
<path d="M1377.19 108.639C1377.19 108.868 1377.36 109.061 1377.56 109.061C1377.75 109.061 1377.93 108.868 1377.93 108.639C1377.93 108.41 1377.75 108.217 1377.56 108.217C1377.36 108.217 1377.19 108.41 1377.19 108.639Z" fill="white" fill-opacity="0.68"/>
<path d="M1371.61 169.346C1371.33 169.187 1371 169.328 1370.86 169.627C1370.72 169.926 1370.84 170.313 1371.12 170.471C1371.4 170.629 1371.74 170.488 1371.88 170.189C1372.02 169.873 1371.9 169.504 1371.61 169.346Z" fill="white" fill-opacity="0.68"/>
<path d="M1317.79 117.412C1317.6 117.307 1317.39 117.412 1317.3 117.606C1317.21 117.817 1317.3 118.063 1317.48 118.168C1317.67 118.274 1317.88 118.168 1317.97 117.975C1318.06 117.781 1317.97 117.518 1317.79 117.412Z" fill="white" fill-opacity="0.68"/>
<path d="M1438.54 167.274C1438.1 167.379 1437.82 167.854 1437.9 168.346C1437.99 168.838 1438.41 169.155 1438.85 169.067C1439.29 168.961 1439.57 168.487 1439.49 167.994C1439.4 167.502 1438.98 167.186 1438.54 167.274Z" fill="white" fill-opacity="0.68"/>
</g>
<g opacity="0.64">
<path d="M1062.39 140.957C1062.45 140.605 1062.24 140.289 1061.94 140.219C1061.64 140.166 1061.34 140.394 1061.29 140.728C1061.23 141.08 1061.44 141.396 1061.74 141.467C1062.04 141.537 1062.34 141.291 1062.39 140.957Z" fill="white" fill-opacity="0.68"/>
<path d="M1078.83 145.211C1078.86 144.982 1078.72 144.771 1078.53 144.718C1078.32 144.683 1078.13 144.841 1078.09 145.07C1078.06 145.299 1078.2 145.51 1078.39 145.562C1078.6 145.597 1078.79 145.439 1078.83 145.211Z" fill="white" fill-opacity="0.68"/>
<path d="M1120.83 144.927C1121.29 145.296 1121.92 145.173 1122.24 144.663C1122.57 144.154 1122.47 143.45 1122.01 143.081C1121.55 142.712 1120.92 142.835 1120.6 143.345C1120.27 143.855 1120.38 144.558 1120.83 144.927Z" fill="white" fill-opacity="0.68"/>
<path d="M1056.75 97.6526C1057.05 97.8987 1057.47 97.8283 1057.7 97.4767C1057.91 97.1427 1057.85 96.6681 1057.54 96.4219C1057.24 96.1758 1056.82 96.2461 1056.59 96.5977C1056.38 96.9317 1056.43 97.4064 1056.75 97.6526Z" fill="white" fill-opacity="0.68"/>
<path d="M1029.07 103.912C1029.51 103.912 1029.86 103.49 1029.86 102.981C1029.86 102.471 1029.48 102.084 1029.04 102.102C1028.6 102.102 1028.25 102.524 1028.25 103.033C1028.25 103.543 1028.63 103.93 1029.07 103.912Z" fill="white" fill-opacity="0.68"/>
<path d="M1165.66 89.674C1165.66 90.3069 1166.12 90.8168 1166.68 90.8168C1167.24 90.8168 1167.7 90.3069 1167.7 89.674C1167.7 89.0411 1167.24 88.5312 1166.68 88.5312C1166.12 88.5312 1165.66 89.0411 1165.66 89.674Z" fill="white" fill-opacity="0.68"/>
<path d="M1202.23 168.575C1202.23 169.841 1203.14 170.861 1204.27 170.861C1205.39 170.861 1206.31 169.841 1206.31 168.575C1206.31 167.309 1205.39 166.29 1204.27 166.29C1203.14 166.29 1202.23 167.309 1202.23 168.575Z" fill="white" fill-opacity="0.68"/>
</g>
<g opacity="0.64">
<path d="M61.1397 122.026C60.8761 122.325 60.8586 122.8 61.1397 123.098C61.4033 123.397 61.825 123.415 62.1062 123.098C62.3698 122.8 62.3874 122.325 62.1062 122.026C61.825 121.727 61.4209 121.71 61.1397 122.026Z" fill="white" fill-opacity="0.68"/>
<path d="M63.7019 75.6453C63.5262 75.8387 63.5262 76.1727 63.7019 76.3661C63.8777 76.5595 64.1589 76.5771 64.3346 76.3661C64.5104 76.1727 64.5104 75.8563 64.3346 75.6453C64.1589 75.4343 63.8777 75.4343 63.7019 75.6453Z" fill="white" fill-opacity="0.68"/>
<path d="M12.3752 121.423C12.2522 121.019 11.8832 120.808 11.5142 120.931C11.1627 121.054 10.9694 121.493 11.0748 121.898C11.1979 122.302 11.5669 122.513 11.9359 122.39C12.2873 122.267 12.4806 121.827 12.3752 121.423Z" fill="white" fill-opacity="0.68"/>
<path d="M6.86986 25.1708C6.79957 24.9071 6.53597 24.7664 6.30752 24.8543C6.07907 24.9422 5.93854 25.2236 6.0264 25.5049C6.09669 25.7686 6.36019 25.9092 6.58864 25.8213C6.81708 25.7334 6.95773 25.4521 6.86986 25.1708Z" fill="white" fill-opacity="0.68"/>
<path d="M70.3803 184.858C69.941 184.506 69.3259 184.647 69.0272 185.139C68.7284 185.632 68.8339 186.317 69.2732 186.669C69.7125 187.02 70.3275 186.88 70.6262 186.388C70.925 185.895 70.8196 185.21 70.3803 184.858Z" fill="white" fill-opacity="0.68"/>
</g>
<g opacity="0.64">
<path d="M634.118 155.708C634.399 156.007 634.874 156.077 635.173 155.831C635.471 155.603 635.489 155.163 635.19 154.847C634.909 154.548 634.435 154.477 634.136 154.724C633.837 154.952 633.82 155.392 634.118 155.708Z" fill="white" fill-opacity="0.68"/>
<path d="M588.908 148.059C589.101 148.27 589.417 148.306 589.611 148.147C589.804 147.989 589.822 147.69 589.611 147.497C589.417 147.286 589.101 147.251 588.908 147.409C588.715 147.567 588.697 147.866 588.908 148.059Z" fill="white" fill-opacity="0.68"/>
<path d="M633.019 205.602C632.632 205.672 632.404 206.041 632.527 206.428C632.65 206.815 633.072 207.044 633.458 206.973C633.845 206.903 634.073 206.534 633.95 206.147C633.827 205.76 633.406 205.532 633.019 205.602Z" fill="white" fill-opacity="0.68"/>
<path d="M539.083 200.786C538.82 200.839 538.679 201.085 538.767 201.331C538.855 201.577 539.136 201.753 539.382 201.7C539.646 201.648 539.786 201.402 539.698 201.155C539.61 200.909 539.329 200.733 539.083 200.786Z" fill="white" fill-opacity="0.68"/>
<path d="M695.512 153.072C695.178 153.494 695.284 154.127 695.776 154.496C696.268 154.865 696.935 154.83 697.269 154.408C697.603 153.986 697.498 153.353 697.006 152.984C696.514 152.615 695.846 152.65 695.512 153.072Z" fill="white" fill-opacity="0.68"/>
</g>
<g opacity="0.64">
<path d="M416.437 202.554C416.174 202.853 416.156 203.328 416.437 203.627C416.718 203.926 417.123 203.943 417.404 203.627C417.667 203.328 417.685 202.853 417.404 202.554C417.14 202.255 416.718 202.238 416.437 202.554Z" fill="white" fill-opacity="0.68"/>
<path d="M418.983 156.173C418.807 156.367 418.807 156.683 418.983 156.894C419.158 157.087 419.439 157.105 419.615 156.894C419.791 156.701 419.791 156.367 419.615 156.173C419.439 155.98 419.158 155.962 418.983 156.173Z" fill="white" fill-opacity="0.68"/>
<path d="M365.403 190.756C365.28 190.352 364.911 190.141 364.542 190.264C364.19 190.387 363.997 190.827 364.102 191.231C364.225 191.635 364.594 191.846 364.963 191.723C365.315 191.6 365.508 191.161 365.403 190.756Z" fill="white" fill-opacity="0.68"/>
<path d="M362.158 105.717C362.087 105.454 361.824 105.313 361.595 105.401C361.367 105.489 361.226 105.77 361.314 106.051C361.385 106.315 361.648 106.456 361.877 106.368C362.105 106.28 362.246 105.999 362.158 105.717Z" fill="white" fill-opacity="0.68"/>
<path d="M405.429 245.25C404.99 244.899 404.374 245.039 404.076 245.532C403.777 246.024 403.882 246.71 404.322 247.061C404.761 247.413 405.376 247.272 405.675 246.78C405.974 246.288 405.868 245.602 405.429 245.25Z" fill="white" fill-opacity="0.68"/>
</g>
<g opacity="0.64">
<path d="M546.859 86.8008C546.807 87.1524 547.018 87.4688 547.316 87.5391C547.615 87.5919 547.914 87.3634 547.967 87.0293C548.019 86.6777 547.808 86.3612 547.51 86.2909C547.211 86.2206 546.912 86.4667 546.859 86.8008Z" fill="white" fill-opacity="0.68"/>
<path d="M530.417 82.5484C530.381 82.7769 530.522 82.9879 530.715 83.0406C530.926 83.0758 531.119 82.9176 531.155 82.689C531.19 82.4605 531.049 82.2495 530.856 82.1968C530.645 82.1616 530.452 82.3198 530.417 82.5484Z" fill="white" fill-opacity="0.68"/>
<path d="M488.415 82.8467C487.958 82.4775 487.326 82.6005 487.01 83.1104C486.676 83.6202 486.781 84.3234 487.238 84.6926C487.695 85.0618 488.327 84.9387 488.644 84.4289C488.978 83.9191 488.872 83.2159 488.415 82.8467Z" fill="white" fill-opacity="0.68"/>
<path d="M507.534 56.2808C507.236 56.0347 506.814 56.105 506.585 56.4567C506.375 56.7907 506.427 57.2654 506.744 57.5115C507.042 57.7576 507.464 57.6873 507.693 57.3357C507.921 56.9841 507.851 56.527 507.534 56.2808Z" fill="white" fill-opacity="0.68"/>
<path d="M591.412 137.276C590.972 137.276 590.621 137.698 590.621 138.208C590.621 138.718 591.007 139.105 591.447 139.087C591.886 139.087 592.237 138.665 592.237 138.155C592.237 137.645 591.851 137.259 591.412 137.276Z" fill="white" fill-opacity="0.68"/>
<path d="M458.216 197.933C457.653 197.933 457.197 197.422 457.197 196.791C457.197 196.159 457.653 195.648 458.216 195.648C458.779 195.648 459.235 196.159 459.235 196.791C459.235 197.422 458.779 197.933 458.216 197.933Z" fill="white" fill-opacity="0.68"/>
<path d="M407.01 59.1826C407.01 57.9168 406.096 56.8971 404.971 56.8971C403.847 56.8971 402.933 57.9168 402.933 59.1826C402.933 60.4484 403.847 61.4681 404.971 61.4681C406.096 61.4681 407.01 60.4484 407.01 59.1826Z" fill="white" fill-opacity="0.68"/>
</g>
<g opacity="0.64">
<path d="M1141.43 341.373C1141.34 341.039 1141.03 340.811 1140.73 340.881C1140.43 340.951 1140.25 341.268 1140.34 341.602C1140.43 341.936 1140.74 342.164 1141.04 342.094C1141.34 342.024 1141.52 341.707 1141.43 341.373Z" fill="white" fill-opacity="0.68"/>
<path d="M1158.23 338.808C1158.17 338.579 1157.96 338.438 1157.75 338.473C1157.54 338.509 1157.44 338.737 1157.49 338.966C1157.54 339.194 1157.75 339.335 1157.96 339.3C1158.17 339.265 1158.28 339.036 1158.23 338.808Z" fill="white" fill-opacity="0.68"/>
<path d="M1196.69 322.037C1197.25 322.195 1197.78 321.844 1197.89 321.246C1197.99 320.648 1197.61 320.033 1197.04 319.875C1196.48 319.716 1195.95 320.068 1195.85 320.666C1195.74 321.263 1196.13 321.879 1196.69 322.037Z" fill="white" fill-opacity="0.68"/>
<path d="M1189.68 353.946C1190.05 354.052 1190.42 353.823 1190.47 353.419C1190.54 353.015 1190.28 352.61 1189.91 352.505C1189.54 352.399 1189.17 352.628 1189.12 353.032C1189.05 353.436 1189.31 353.841 1189.68 353.946Z" fill="white" fill-opacity="0.68"/>
<path d="M1080.45 312.543C1080.86 312.35 1081.02 311.84 1080.8 311.383C1080.59 310.926 1080.1 310.715 1079.7 310.891C1079.29 311.084 1079.14 311.594 1079.35 312.051C1079.56 312.508 1080.05 312.719 1080.45 312.543Z" fill="white" fill-opacity="0.68"/>
<path d="M1178.24 205.88C1178.48 206.46 1179.12 206.759 1179.63 206.53C1180.14 206.302 1180.36 205.669 1180.1 205.088C1179.84 204.508 1179.22 204.209 1178.71 204.438C1178.2 204.667 1177.97 205.299 1178.24 205.88Z" fill="white" fill-opacity="0.68"/>
</g>
<g opacity="0.64">
<path d="M523.902 322.874C523.762 322.118 523.235 321.608 522.743 321.766C522.251 321.907 521.952 322.663 522.11 323.419C522.268 324.175 522.778 324.685 523.27 324.527C523.762 324.368 524.06 323.63 523.902 322.874Z" fill="white" fill-opacity="0.68"/>
<path d="M551.442 317.089C551.354 316.579 551.003 316.245 550.669 316.35C550.335 316.456 550.142 316.948 550.247 317.458C550.335 317.968 550.686 318.302 551.02 318.196C551.354 318.091 551.547 317.599 551.442 317.089Z" fill="white" fill-opacity="0.68"/>
<path d="M614.547 279.065C615.461 279.434 616.339 278.626 616.497 277.272C616.656 275.918 616.041 274.529 615.127 274.16C614.213 273.791 613.334 274.6 613.176 275.953C613.018 277.307 613.633 278.696 614.547 279.065Z" fill="white" fill-opacity="0.68"/>
<path d="M603.038 351.389C603.653 351.635 604.233 351.09 604.338 350.193C604.444 349.296 604.039 348.365 603.424 348.119C602.809 347.872 602.229 348.417 602.124 349.314C602.019 350.211 602.423 351.142 603.038 351.389Z" fill="white" fill-opacity="0.68"/>
<path d="M330.787 294.974C331.455 294.552 331.718 293.374 331.367 292.337C331.015 291.3 330.207 290.808 329.539 291.23C328.871 291.651 328.608 292.829 328.959 293.867C329.311 294.904 330.119 295.396 330.787 294.974Z" fill="white" fill-opacity="0.68"/>
<path d="M584.271 15.8112C584.676 17.1297 585.695 17.7802 586.538 17.288C587.382 16.7957 587.733 15.3189 587.329 14.0004C586.925 12.6818 585.906 12.0314 585.062 12.5236C584.219 13.0159 583.867 14.4926 584.271 15.8112Z" fill="white" fill-opacity="0.68"/>
</g>
<g opacity="0.64">
<path d="M820.739 214.054C821.038 213.861 821.143 213.492 820.985 213.228C820.827 212.964 820.458 212.894 820.159 213.087C819.86 213.281 819.755 213.65 819.913 213.914C820.071 214.177 820.44 214.248 820.739 214.054Z" fill="white" fill-opacity="0.68"/>
<path d="M828.451 229.122C828.645 228.999 828.715 228.753 828.61 228.577C828.504 228.401 828.258 228.366 828.065 228.489C827.872 228.612 827.801 228.858 827.907 229.034C828.012 229.21 828.258 229.245 828.451 229.122Z" fill="white" fill-opacity="0.68"/>
<path d="M856.571 260.167C856.589 260.748 857.098 261.134 857.696 261.046C858.293 260.959 858.768 260.396 858.732 259.816C858.715 259.236 858.205 258.849 857.608 258.937C857.01 259.025 856.536 259.587 856.571 260.167Z" fill="white" fill-opacity="0.68"/>
<path d="M823.919 263.58C823.919 263.967 824.27 264.23 824.674 264.16C825.079 264.09 825.377 263.738 825.377 263.351C825.377 262.964 825.026 262.701 824.622 262.771C824.218 262.841 823.919 263.193 823.919 263.58Z" fill="white" fill-opacity="0.68"/>
<path d="M829.04 147.406C829.338 147.722 829.901 147.722 830.27 147.37C830.639 147.036 830.691 146.491 830.393 146.157C830.094 145.841 829.532 145.841 829.163 146.192C828.794 146.527 828.741 147.072 829.04 147.406Z" fill="white" fill-opacity="0.68"/>
<path d="M961.564 206.215C961.089 206.637 961.001 207.305 961.37 207.727C961.74 208.149 962.425 208.149 962.899 207.727C963.374 207.305 963.462 206.637 963.093 206.215C962.724 205.793 962.038 205.793 961.564 206.215Z" fill="white" fill-opacity="0.68"/>
</g>
<g opacity="0.64">
<path d="M217.609 282.496C217.521 282.162 217.205 281.934 216.906 282.004C216.607 282.074 216.432 282.391 216.519 282.725C216.607 283.059 216.924 283.287 217.222 283.217C217.521 283.147 217.697 282.83 217.609 282.496Z" fill="white" fill-opacity="0.68"/>
<path d="M234.404 279.949C234.351 279.72 234.14 279.58 233.929 279.615C233.718 279.65 233.613 279.878 233.666 280.107C233.718 280.336 233.929 280.476 234.14 280.441C234.351 280.406 234.456 280.177 234.404 279.949Z" fill="white" fill-opacity="0.68"/>
<path d="M272.871 263.155C273.434 263.313 273.961 262.962 274.066 262.364C274.172 261.766 273.785 261.151 273.223 260.993C272.661 260.835 272.133 261.186 272.028 261.784C271.923 262.382 272.309 262.997 272.871 263.155Z" fill="white" fill-opacity="0.68"/>
<path d="M156.639 253.665C157.043 253.472 157.202 252.962 156.991 252.505C156.78 252.048 156.288 251.837 155.884 252.013C155.479 252.206 155.321 252.716 155.532 253.173C155.743 253.63 156.235 253.841 156.639 253.665Z" fill="white" fill-opacity="0.68"/>
</g>
<path d="M888.806 107.076C888.296 105.933 887.066 105.476 886.047 106.056C885.028 106.636 884.624 108.025 885.133 109.168C885.643 110.311 886.873 110.768 887.892 110.188C888.911 109.607 889.316 108.219 888.806 107.076Z" fill="white" fill-opacity="0.68"/>
<path d="M742.143 108.43C742.864 108.43 743.426 107.762 743.426 106.953C743.426 106.145 742.829 105.512 742.126 105.512C741.405 105.512 740.843 106.18 740.843 106.988C740.843 107.797 741.44 108.43 742.143 108.43Z" fill="white" fill-opacity="0.68"/>
<path d="M880.429 154.299C880.903 154.299 881.29 153.859 881.272 153.314C881.272 152.787 880.868 152.347 880.393 152.365C879.919 152.365 879.532 152.804 879.55 153.349C879.55 153.877 879.954 154.316 880.429 154.299Z" fill="white" fill-opacity="0.68"/>
<path d="M588.444 161.505C587.987 160.486 586.88 160.081 585.966 160.591C585.052 161.101 584.701 162.349 585.158 163.369C585.615 164.388 586.722 164.793 587.635 164.283C588.549 163.773 588.901 162.525 588.444 161.505Z" fill="white" fill-opacity="0.68"/>
<path d="M446.426 288.296C446.953 288.296 447.375 287.804 447.375 287.206C447.375 286.608 446.935 286.134 446.408 286.134C445.881 286.134 445.459 286.626 445.459 287.224C445.459 287.822 445.899 288.296 446.426 288.296Z" fill="white" fill-opacity="0.68"/>
<path d="M505.619 108.731C506.638 108.731 507.446 107.782 507.429 106.639C507.429 105.496 506.585 104.582 505.566 104.6C504.547 104.617 503.738 105.549 503.756 106.692C503.756 107.834 504.599 108.749 505.619 108.731Z" fill="white" fill-opacity="0.68"/>
<path d="M166.498 170.158C166.973 169.736 167.061 168.963 166.692 168.435C166.323 167.908 165.637 167.802 165.163 168.224C164.689 168.646 164.601 169.42 164.97 169.947C165.339 170.475 166.024 170.58 166.498 170.158Z" fill="white" fill-opacity="0.68"/>
<path d="M329.303 410.903C329.83 410.903 330.252 410.41 330.252 409.813C330.252 409.215 329.812 408.74 329.285 408.74C328.758 408.74 328.336 409.232 328.336 409.83C328.336 410.428 328.775 410.903 329.303 410.903Z" fill="white" fill-opacity="0.68"/>
<path d="M374.425 220.786C375.444 220.786 376.253 219.837 376.235 218.694C376.235 217.551 375.392 216.637 374.372 216.655C373.353 216.672 372.545 217.604 372.562 218.747C372.562 219.89 373.406 220.804 374.425 220.786Z" fill="white" fill-opacity="0.68"/>
<path d="M49.3585 292.763C49.8329 292.341 49.9208 291.568 49.5517 291.04C49.1827 290.513 48.4974 290.407 48.0229 290.829C47.5484 291.251 47.4606 292.025 47.8296 292.552C48.1987 293.08 48.884 293.185 49.3585 292.763Z" fill="white" fill-opacity="0.68"/>
<g filter="url(#filter0_f_224_1119)">
<ellipse cx="44.5" cy="247.5" rx="184.5" ry="249.5" fill="#9A6DFF" fill-opacity="0.26"/>
</g>
<g filter="url(#filter1_f_224_1119)">
<ellipse cx="1451.5" cy="774.5" rx="255.5" ry="298.5" fill="#824FF7" fill-opacity="0.21"/>
</g>
<defs>
<filter id="filter0_f_224_1119" x="-363" y="-225" width="815" height="945" filterUnits="userSpaceOnUse" color-interpolation-filters="sRGB">
<feFlood flood-opacity="0" result="BackgroundImageFix"/>
<feBlend mode="normal" in="SourceGraphic" in2="BackgroundImageFix" result="shape"/>
<feGaussianBlur stdDeviation="111.5" result="effect1_foregroundBlur_224_1119"/>
</filter>
<filter id="filter1_f_224_1119" x="1005" y="285" width="893" height="979" filterUnits="userSpaceOnUse" color-interpolation-filters="sRGB">
<feFlood flood-opacity="0" result="BackgroundImageFix"/>
<feBlend mode="normal" in="SourceGraphic" in2="BackgroundImageFix" result="shape"/>
<feGaussianBlur stdDeviation="95.5" result="effect1_foregroundBlur_224_1119"/>
</filter>
</defs>
</svg>
