<svg width="16" height="10" viewBox="0 0 16 10" fill="none" xmlns="http://www.w3.org/2000/svg">
<path d="M0.5 0.375V9.625H4.969C5.383 9.625 8.234 9.541 8.234 6.9375C8.234 5.3105 7.115 4.7575 6.547 4.5935C6.965 4.3965 7.797 3.9275 7.797 2.672C7.797 1.9725 7.697 0.375 4.844 0.375H0.5ZM10.6875 1.2345V2.078H14.1405V1.235L10.6875 1.2345ZM2.531 1.953H4.4375C4.6175 1.953 5.828 1.8575 5.828 3.0155C5.828 4.0055 4.953 4.1095 4.5935 4.1095H2.532L2.531 1.953ZM12.5 2.8435C9.8885 2.8435 9.3435 5.1115 9.3435 6.0935C9.3435 9.01 11.7345 9.3435 12.5 9.3435C14.5645 9.3435 15.15 8.008 15.3905 7.2655H13.8905C13.832 7.457 13.3945 8.078 12.5625 8.078C11.1675 8.078 11.047 6.988 11.047 6.5H15.4845C15.5745 4.8125 14.836 2.8435 12.5 2.8435V2.8435ZM12.453 4.1095C12.869 4.1095 13.205 4.2305 13.4065 4.453C13.6075 4.678 13.756 5.006 13.7965 5.4375H11.0465C11.0545 5.3185 11.082 5.1815 11.125 5.031C11.168 4.877 11.2345 4.7305 11.344 4.5935C11.453 4.459 11.6055 4.342 11.7815 4.25C11.961 4.156 12.1835 4.1095 12.453 4.1095V4.1095ZM2.5315 5.5H4.7345C5.172 5.5 6.203 5.5685 6.203 6.828C6.203 8.049 4.9045 8.047 4.703 8.047H2.531L2.5315 5.5Z" fill="#225BF9"/>
</svg>
