<svg width="76" height="76" viewBox="0 0 76 76" fill="none" xmlns="http://www.w3.org/2000/svg">
<rect width="76" height="76" rx="38" fill="#F3F3F3"/>
<path d="M23.75 29.2125V46.7875H32.2411C33.0277 46.7875 38.4446 46.6279 38.4446 41.6813C38.4446 38.59 36.3185 37.5393 35.2393 37.2277C36.0335 36.8534 37.6143 35.9623 37.6143 33.5768C37.6143 32.2478 37.4243 29.2125 32.0036 29.2125H23.75ZM43.1063 30.8456V32.4482H49.667V30.8465L43.1063 30.8456ZM27.6089 32.2107H31.2313C31.5733 32.2107 33.8732 32.0293 33.8732 34.2295C33.8732 36.1105 32.2107 36.3081 31.5277 36.3081H27.6108L27.6089 32.2107ZM46.55 33.9027C41.5882 33.9027 40.5527 38.2119 40.5527 40.0777C40.5527 45.619 45.0956 46.2527 46.55 46.2527C50.4726 46.2527 51.585 43.7152 52.042 42.3045H49.192C49.0808 42.6683 48.2496 43.8482 46.6688 43.8482C44.0183 43.8482 43.7893 41.7772 43.7893 40.85H52.2206C52.3916 37.6438 50.9884 33.9027 46.55 33.9027V33.9027ZM46.4607 36.3081C47.2511 36.3081 47.8895 36.538 48.2724 36.9607C48.6543 37.3882 48.9364 38.0114 49.0134 38.8313H43.7884C43.8036 38.6052 43.8558 38.3449 43.9375 38.0589C44.0192 37.7663 44.1456 37.488 44.3536 37.2277C44.5607 36.9721 44.8505 36.7498 45.1849 36.575C45.5259 36.3964 45.9487 36.3081 46.4607 36.3081V36.3081ZM27.6099 38.95H31.7956C32.6268 38.95 34.5857 39.0802 34.5857 41.4732C34.5857 43.7931 32.1186 43.7893 31.7357 43.7893H27.6089L27.6099 38.95Z" fill="#225BF9"/>
</svg>
