<svg width="76" height="76" viewBox="0 0 76 76" fill="none" xmlns="http://www.w3.org/2000/svg">
<g opacity="0.76">
<g clip-path="url(#clip0_4_63)">
<rect width="76" height="76" rx="38" fill="#F3F3F3"/>
<rect width="76" height="76" rx="38" fill="#225BF9"/>
<path d="M23.75 29.2125V46.7875H32.2411C33.0277 46.7875 38.4446 46.6279 38.4446 41.6812C38.4446 38.5899 36.3185 37.5392 35.2393 37.2276C36.0335 36.8533 37.6143 35.9622 37.6143 33.5768C37.6143 32.2477 37.4243 29.2125 32.0036 29.2125H23.75ZM43.1062 30.8455V32.4482H49.6669V30.8465L43.1062 30.8455ZM27.6089 32.2107H31.2312C31.5732 32.2107 33.8732 32.0292 33.8732 34.2294C33.8732 36.1104 32.2107 36.308 31.5277 36.308H27.6108L27.6089 32.2107ZM46.55 33.9026C41.5881 33.9026 40.5527 38.2118 40.5527 40.0776C40.5527 45.619 45.0955 46.2526 46.55 46.2526C50.4725 46.2526 51.585 43.7152 52.0419 42.3044H49.1919C49.0808 42.6683 48.2495 43.8482 46.6687 43.8482C44.0182 43.8482 43.7893 41.7772 43.7893 40.85H52.2205C52.3915 37.6437 50.9884 33.9026 46.55 33.9026V33.9026ZM46.4607 36.308C47.2511 36.308 47.8895 36.5379 48.2723 36.9607C48.6542 37.3882 48.9364 38.0114 49.0134 38.8312H43.7884C43.8036 38.6051 43.8558 38.3448 43.9375 38.0589C44.0192 37.7663 44.1455 37.4879 44.3536 37.2276C44.5607 36.9721 44.8504 36.7498 45.1848 36.575C45.5259 36.3964 45.9486 36.308 46.4607 36.308V36.308ZM27.6099 38.95H31.7955C32.6268 38.95 34.5857 39.0801 34.5857 41.4732C34.5857 43.7931 32.1186 43.7893 31.7357 43.7893H27.6089L27.6099 38.95Z" fill="#F3F3F3"/>
</g>
</g>
<defs>
<clipPath id="clip0_4_63">
<rect width="76" height="76" rx="38" fill="white"/>
</clipPath>
</defs>
</svg>
