<svg width="128" height="128" viewBox="0 0 128 128" fill="none" xmlns="http://www.w3.org/2000/svg">
<rect width="128" height="128" rx="20" fill="#F7F7F7"/>
<g clip-path="url(#clip0_303_2)">
<path d="M30.2058 -0.977112L63.5164 60.5801" stroke="#603CBA" stroke-width="5"/>
<path d="M96.8269 -0.977112L63.5163 60.5801" stroke="#603CBA" stroke-width="5"/>
<path d="M63.6522 60.3219L64.0032 128" stroke="#603CBA" stroke-width="5"/>
<path d="M30.2058 0L30.2058 17.5878" stroke="#603CBA" stroke-width="5"/>
<path d="M96.8269 0L96.8269 17.5878" stroke="#603CBA" stroke-width="5"/>
<path d="M48.2189 32.4118H79.9933" stroke="#603CBA" stroke-width="5"/>
<path d="M80.0224 32.4118C85.6079 33.2473 96.688 38.746 96.3258 55.8802C96.1318 65.0518 90.0032 70.9769 82.7398 74.6191C76.1504 78.9628 64.1268 83.0133 55.7941 87.5505C49.9068 91.1964 47.1896 94.1585 46.0575 97.1201C45.4885 98.6088 37.2365 119.22 63.0499 126.739" stroke="#603CBA" stroke-width="5"/>
<path d="M33.4913 22.9667C33.4921 23.0664 33.4617 23.1638 33.4044 23.2455C33.347 23.3272 33.2657 23.3891 33.1715 23.4225L31.225 24.1276L30.5182 26.0695C30.4836 26.1625 30.4213 26.2428 30.3396 26.2995C30.2579 26.3561 30.1608 26.3865 30.0613 26.3865C29.9618 26.3865 29.8647 26.3561 29.783 26.2995C29.7013 26.2428 29.639 26.1625 29.6044 26.0695L28.8976 24.1276L26.9511 23.4225C26.8578 23.388 26.7774 23.3257 26.7206 23.2443C26.6638 23.1628 26.6333 23.0659 26.6333 22.9667C26.6333 22.8674 26.6638 22.7705 26.7206 22.689C26.7774 22.6076 26.8578 22.5453 26.9511 22.5108L28.8976 21.8057L29.6044 19.8639C29.639 19.7708 29.7013 19.6905 29.783 19.6338C29.8647 19.5772 29.9618 19.5468 30.0613 19.5468C30.1608 19.5468 30.2579 19.5772 30.3396 19.6338C30.4213 19.6905 30.4836 19.7708 30.5182 19.8639L31.225 21.8057L33.1715 22.5108C33.2657 22.5443 33.347 22.6061 33.4044 22.6878C33.4617 22.7695 33.4921 22.867 33.4913 22.9667Z" fill="#603CBA"/>
</g>
<defs>
<clipPath id="clip0_303_2">
<rect width="76" height="128" fill="white" transform="translate(26)"/>
</clipPath>
</defs>
</svg>
