<svg width="15" height="16" viewBox="0 0 15 16" fill="none" xmlns="http://www.w3.org/2000/svg">
<path d="M13.6574 2.97309C13.5958 2.89098 13.5299 2.81215 13.4601 2.73693C13.5303 2.5491 13.5837 2.35533 13.6195 2.15796C13.7252 1.43591 13.6334 0.698599 13.3539 0.024895C13.3539 0.024895 12.5042 -0.241738 10.5543 1.07619C9.72651 0.846686 8.87145 0.731357 8.01267 0.733376C7.15142 0.73186 6.29392 0.847174 5.46343 1.07619C3.51357 -0.256974 2.66382 0.024895 2.66382 0.024895C2.38772 0.691465 2.29597 1.42052 2.39828 2.1351C2.43428 2.34069 2.49018 2.54225 2.56519 2.73693C2.49691 2.81311 2.42863 2.89691 2.36793 2.97309C1.80177 3.68616 1.50124 4.57528 1.51818 5.48706C1.51638 5.7033 1.52651 5.91947 1.54853 6.13459C1.79132 9.5094 4.02948 10.2941 6.16144 10.5378C5.85969 10.8196 5.65508 11.1905 5.57723 11.5968C5.50672 11.8677 5.47353 12.1471 5.4786 12.4271V13.4251C4.62962 13.5013 3.75863 13.3771 3.48853 12.6168C3.19859 11.8891 2.71774 11.2539 2.09707 10.7786C2.05171 10.7539 2.00856 10.7254 1.96809 10.6932C1.91359 10.5494 1.81703 10.4255 1.6911 10.3378C1.56516 10.2501 1.41575 10.2027 1.2625 10.2019H1.25871C1.05814 10.2019 0.865737 10.2816 0.723561 10.4237C0.581386 10.5657 0.501009 10.7585 0.500006 10.9599C0.49773 11.5785 1.11455 11.9784 1.3672 12.114C1.66238 12.4127 1.89982 12.7637 2.06748 13.1493C2.34365 13.9286 3.15167 15.1133 5.45584 14.9594L5.45736 15.034L5.4604 15.2382C5.4604 15.4402 5.54033 15.634 5.68261 15.7769C5.8249 15.9197 6.01788 16 6.2191 16H9.79561C9.99683 16 10.1898 15.9197 10.3321 15.7769C10.4744 15.634 10.5543 15.4402 10.5543 15.2382C10.5543 15.2382 10.5604 12.8309 10.5604 12.4271C10.5654 12.1471 10.5323 11.8677 10.4618 11.5968L10.4602 11.5922L10.4633 11.5968C10.4564 11.5701 10.4466 11.5488 10.439 11.5229C10.3545 11.1454 10.1588 10.8022 9.87755 10.5378L9.88666 10.5538L9.87148 10.5386C12.0034 10.2948 14.2264 9.49493 14.4692 6.13535C14.4912 5.92024 14.5014 5.70406 14.4996 5.48782C14.513 4.57785 14.2158 3.68991 13.6574 2.97309Z" fill="#7743CE"/>
</svg>
