<svg width="76" height="76" viewBox="0 0 76 76" fill="none" xmlns="http://www.w3.org/2000/svg">
<g opacity="0.76">
<g clip-path="url(#clip0_244_431)">
<rect width="76" height="76" rx="38" fill="#F3F3F3"/>
<rect width="76" height="76" rx="38" fill="#7743CE"/>
<g clip-path="url(#clip1_244_431)">
<g clip-path="url(#clip2_244_431)">
<path d="M48.7491 28.4489C48.632 28.2929 48.5069 28.1431 48.3743 28.0002C48.5077 27.6433 48.609 27.2751 48.677 26.9001C48.8778 25.5282 48.7034 24.1273 48.1725 22.8473C48.1725 22.8473 46.5579 22.3407 42.8532 24.8448C41.2804 24.4087 39.6558 24.1896 38.0241 24.1934C36.3877 24.1905 34.7585 24.4096 33.1805 24.8448C29.4758 22.3117 27.8613 22.8473 27.8613 22.8473C27.3367 24.1138 27.1623 25.499 27.3567 26.8567C27.4251 27.2473 27.5313 27.6303 27.6739 28.0002C27.5441 28.1449 27.4144 28.3041 27.2991 28.4489C26.2234 29.8037 25.6524 31.493 25.6845 33.2254C25.6811 33.6363 25.7004 34.047 25.7422 34.4557C26.2035 40.8679 30.456 42.3587 34.5067 42.8219C33.9334 43.3572 33.5446 44.0619 33.3967 44.8338C33.2628 45.3487 33.1997 45.8795 33.2093 46.4115V48.3077C31.5963 48.4524 29.9414 48.2165 29.4282 46.7719C28.8773 45.3893 27.9637 44.1823 26.7844 43.2793C26.6982 43.2324 26.6163 43.1782 26.5394 43.1172C26.4358 42.8439 26.2524 42.6085 26.0131 42.4419C25.7738 42.2752 25.4899 42.1852 25.1988 42.1836H25.1915C24.8105 42.1836 24.4449 42.3351 24.1748 42.605C23.9046 42.8748 23.7519 43.2411 23.75 43.6238C23.7457 44.7991 24.9177 45.559 25.3977 45.8166C25.9585 46.3841 26.4097 47.051 26.7282 47.7837C27.2529 49.2644 28.7882 51.5152 33.1661 51.2228L33.169 51.3647L33.1748 51.7526C33.1748 52.1364 33.3266 52.5046 33.597 52.7761C33.8673 53.0475 34.234 53.2 34.6163 53.2H41.4117C41.794 53.2 42.1606 53.0475 42.431 52.7761C42.7013 52.5046 42.8532 52.1364 42.8532 51.7526C42.8532 51.7526 42.8647 47.1787 42.8647 46.4115C42.8743 45.8795 42.8113 45.3487 42.6773 44.8338L42.6745 44.8251L42.6802 44.8338C42.6672 44.7832 42.6485 44.7426 42.6341 44.6934C42.4735 43.9763 42.1018 43.3242 41.5674 42.8219L41.5847 42.8523L41.5558 42.8233C45.6065 42.3602 49.8302 40.8404 50.2915 34.4572C50.3333 34.0484 50.3526 33.6377 50.3492 33.2269C50.3748 31.4979 49.8101 29.8108 48.7491 28.4489Z" fill="#F3F3F3"/>
</g>
</g>
</g>
</g>
<defs>
<clipPath id="clip0_244_431">
<rect width="76" height="76" rx="38" fill="white"/>
</clipPath>
<clipPath id="clip1_244_431">
<rect width="31.35" height="31.35" fill="white" transform="translate(21.85 22.8)"/>
</clipPath>
<clipPath id="clip2_244_431">
<rect width="31.35" height="31.35" fill="white" transform="translate(21.85 22.8)"/>
</clipPath>
</defs>
</svg>
