<svg width="76" height="76" viewBox="0 0 76 76" fill="none" xmlns="http://www.w3.org/2000/svg">
<g opacity="0.76">
<g clip-path="url(#clip0_4_135)">
<rect width="76" height="76" rx="38" fill="#F3F3F3"/>
<rect x="-0.950012" y="-0.950001" width="77.9" height="77.9" rx="38.95" fill="url(#paint0_linear_4_135)"/>
<g clip-path="url(#clip1_4_135)">
<path d="M38 24.7C34.3907 24.7 33.9369 24.7166 32.5187 24.7798C31.1006 24.8463 30.1347 25.0691 29.2885 25.3983C28.4009 25.7321 27.5969 26.2558 26.9327 26.9327C26.2562 27.5972 25.7326 28.4011 25.3983 29.2885C25.0691 30.1331 24.8446 31.1006 24.7798 32.5138C24.7166 33.9352 24.7 34.3874 24.7 38.0017C24.7 41.6126 24.7166 42.0648 24.7798 43.4829C24.8463 44.8994 25.0691 45.8653 25.3983 46.7115C25.7391 47.586 26.1929 48.3275 26.9327 49.0673C27.6709 49.8071 28.4124 50.2626 29.2868 50.6018C30.1347 50.9309 31.099 51.1554 32.5154 51.2202C33.9352 51.2834 34.3874 51.3 38 51.3C41.6126 51.3 42.0632 51.2834 43.4829 51.2202C44.8977 51.1537 45.867 50.9309 46.7132 50.6018C47.6002 50.2677 48.4036 49.744 49.0673 49.0673C49.8071 48.3275 50.2609 47.586 50.6018 46.7115C50.9293 45.8653 51.1537 44.8994 51.2202 43.4829C51.2834 42.0648 51.3 41.6126 51.3 38C51.3 34.3874 51.2834 33.9352 51.2202 32.5154C51.1537 31.1006 50.9293 30.1331 50.6018 29.2885C50.2675 28.4011 49.7438 27.5972 49.0673 26.9327C48.4033 26.2556 47.5993 25.7318 46.7115 25.3983C45.8636 25.0691 44.8961 24.8446 43.4813 24.7798C42.0615 24.7166 41.611 24.7 37.9967 24.7H38.0017H38ZM36.808 27.0973H38.0017C41.5528 27.0973 41.9734 27.109 43.3749 27.1738C44.6716 27.232 45.3765 27.4498 45.8453 27.631C46.4655 27.8721 46.9093 28.1613 47.3748 28.6268C47.8403 29.0923 48.128 29.5346 48.369 30.1563C48.5519 30.6235 48.768 31.3284 48.8262 32.6251C48.8911 34.0266 48.9044 34.4472 48.9044 37.9967C48.9044 41.5461 48.8911 41.9684 48.8262 43.3699C48.768 44.6666 48.5502 45.3699 48.369 45.8387C48.1558 46.4162 47.8155 46.9383 47.3732 47.3665C46.9077 47.832 46.4655 48.1196 45.8437 48.3607C45.3782 48.5436 44.6733 48.7597 43.3749 48.8196C41.9734 48.8827 41.5528 48.8977 38.0017 48.8977C34.4506 48.8977 34.0283 48.8827 32.6268 48.8196C31.3301 48.7597 30.6268 48.5436 30.158 48.3607C29.5803 48.1478 29.0576 47.8081 28.6285 47.3665C28.1859 46.9377 27.845 46.415 27.631 45.837C27.4498 45.3699 27.232 44.665 27.1738 43.3682C27.1106 41.9667 27.0973 41.5461 27.0973 37.9934C27.0973 34.4423 27.1106 34.0233 27.1738 32.6218C27.2337 31.3251 27.4498 30.6202 27.6327 30.1513C27.8737 29.5312 28.163 29.0873 28.6285 28.6218C29.094 28.1563 29.5362 27.8687 30.158 27.6277C30.6268 27.4448 31.3301 27.2287 32.6268 27.1688C33.8537 27.1123 34.3292 27.0957 36.808 27.094V27.0973V27.0973ZM45.1005 29.3051C44.891 29.3051 44.6834 29.3464 44.4898 29.4266C44.2962 29.5068 44.1202 29.6244 43.972 29.7726C43.8238 29.9208 43.7062 30.0967 43.626 30.2904C43.5458 30.484 43.5045 30.6915 43.5045 30.9011C43.5045 31.1107 43.5458 31.3183 43.626 31.5119C43.7062 31.7055 43.8238 31.8815 43.972 32.0297C44.1202 32.1779 44.2962 32.2954 44.4898 32.3756C44.6834 32.4558 44.891 32.4971 45.1005 32.4971C45.5238 32.4971 45.9298 32.329 46.2291 32.0297C46.5284 31.7304 46.6965 31.3244 46.6965 30.9011C46.6965 30.4778 46.5284 30.0719 46.2291 29.7726C45.9298 29.4733 45.5238 29.3051 45.1005 29.3051V29.3051ZM38.0017 31.1705C37.0957 31.1563 36.196 31.3225 35.3549 31.6595C34.5139 31.9964 33.7482 32.4972 33.1025 33.1329C32.4569 33.7686 31.9441 34.5263 31.5941 35.362C31.2441 36.1978 31.0639 37.0948 31.0639 38.0008C31.0639 38.9069 31.2441 39.8039 31.5941 40.6396C31.9441 41.4753 32.4569 42.2331 33.1025 42.8688C33.7482 43.5044 34.5139 44.0053 35.3549 44.3422C36.196 44.6791 37.0957 44.8453 38.0017 44.8312C39.7948 44.8032 41.5049 44.0713 42.763 42.7934C44.0212 41.5155 44.7263 39.7941 44.7263 38.0008C44.7263 36.2075 44.0212 34.4862 42.763 33.2083C41.5049 31.9304 39.7948 31.1984 38.0017 31.1705V31.1705ZM38.0017 33.5661C39.1776 33.5661 40.3054 34.0333 41.1369 34.8648C41.9684 35.6963 42.4356 36.8241 42.4356 38C42.4356 39.1759 41.9684 40.3037 41.1369 41.1352C40.3054 41.9667 39.1776 42.4339 38.0017 42.4339C36.8257 42.4339 35.698 41.9667 34.8664 41.1352C34.0349 40.3037 33.5678 39.1759 33.5678 38C33.5678 36.8241 34.0349 35.6963 34.8664 34.8648C35.698 34.0333 36.8257 33.5661 38.0017 33.5661V33.5661Z" fill="#F3F3F3"/>
</g>
</g>
</g>
<defs>
<linearGradient id="paint0_linear_4_135" x1="-0.950013" y1="38" x2="76.95" y2="38" gradientUnits="userSpaceOnUse">
<stop stop-color="#DF0037"/>
<stop offset="1" stop-color="#BE0491"/>
</linearGradient>
<clipPath id="clip0_4_135">
<rect width="76" height="76" rx="38" fill="white"/>
</clipPath>
<clipPath id="clip1_4_135">
<rect width="26.6" height="26.6" fill="white" transform="translate(24.7 24.7)"/>
</clipPath>
</defs>
</svg>
