<svg width="270" height="77" viewBox="0 0 270 77" fill="none" xmlns="http://www.w3.org/2000/svg">
<line x1="1.17545" y1="1.41176" x2="20.4798" y2="37.6074" stroke="white" stroke-width="2.5"/>
<line y1="-1.25" x2="41.0217" y2="-1.25" transform="matrix(-0.470588 0.882353 0.882353 0.470588 41.2173 2)" stroke="white" stroke-width="2.5"/>
<path d="M20.627 35.5L20.627 76" stroke="white" stroke-width="2.5"/>
<line x1="39.9312" y1="2" x2="39.9312" y2="12.4565" stroke="white" stroke-width="2.5"/>
<line x1="1.32251" y1="2" x2="1.32251" y2="12.4565" stroke="white" stroke-width="2.5"/>
<line x1="11.5291" y1="19.7863" x2="30.5653" y2="19.7863" stroke="white" stroke-width="2.5"/>
<path d="M30.4979 19.7681C33.826 20.2657 40.4281 23.5407 40.2122 33.7457C40.0966 39.2085 36.4449 42.7373 32.117 44.9067C28.1908 47.4937 21.0265 49.9062 16.0615 52.6087C12.5535 54.78 10.9345 56.5441 10.2599 58.3083C9.92087 59.1949 5.40278 70.5218 20.7837 75" stroke="white" stroke-width="2.5"/>
<path d="M2.41304 14.1993C2.4133 14.2344 2.4026 14.2688 2.38243 14.2976C2.36226 14.3265 2.33363 14.3483 2.3005 14.3601L1.6156 14.6088L1.36693 15.2939C1.35475 15.3268 1.33281 15.3551 1.30407 15.3751C1.27533 15.3951 1.24116 15.4058 1.20616 15.4058C1.17115 15.4058 1.13698 15.3951 1.10824 15.3751C1.0795 15.3551 1.05756 15.3268 1.04538 15.2939L0.796717 14.6088L0.111816 14.3601C0.0789962 14.3479 0.0506908 14.326 0.0307023 14.2972C0.0107139 14.2685 0 14.2343 0 14.1993C0 14.1642 0.0107139 14.1301 0.0307023 14.1013C0.0506908 14.0726 0.0789962 14.0506 0.111816 14.0384L0.796717 13.7897L1.04538 13.1046C1.05756 13.0718 1.0795 13.0434 1.10824 13.0234C1.13698 13.0035 1.17115 12.9927 1.20616 12.9927C1.24116 12.9927 1.27533 13.0035 1.30407 13.0234C1.33281 13.0434 1.35475 13.0718 1.36693 13.1046L1.6156 13.7897L2.3005 14.0384C2.33363 14.0502 2.36226 14.0721 2.38243 14.1009C2.4026 14.1297 2.4133 14.1641 2.41304 14.1993V14.1993Z" fill="white"/>
<path d="M75.72 31.06L68.64 44.71V52H64.44V44.71L57.33 31.06H62.07L66.57 40.63L71.04 31.06H75.72ZM77.0623 43.63C77.0623 41.95 77.3923 40.46 78.0523 39.16C78.7323 37.86 79.6423 36.86 80.7823 36.16C81.9423 35.46 83.2323 35.11 84.6523 35.11C85.8923 35.11 86.9723 35.36 87.8923 35.86C88.8323 36.36 89.5823 36.99 90.1423 37.75V35.38H94.3723V52H90.1423V49.57C89.6023 50.35 88.8523 51 87.8923 51.52C86.9523 52.02 85.8623 52.27 84.6223 52.27C83.2223 52.27 81.9423 51.91 80.7823 51.19C79.6423 50.47 78.7323 49.46 78.0523 48.16C77.3923 46.84 77.0623 45.33 77.0623 43.63ZM90.1423 43.69C90.1423 42.67 89.9423 41.8 89.5423 41.08C89.1423 40.34 88.6023 39.78 87.9223 39.4C87.2423 39 86.5123 38.8 85.7323 38.8C84.9523 38.8 84.2323 38.99 83.5723 39.37C82.9123 39.75 82.3723 40.31 81.9523 41.05C81.5523 41.77 81.3523 42.63 81.3523 43.63C81.3523 44.63 81.5523 45.51 81.9523 46.27C82.3723 47.01 82.9123 47.58 83.5723 47.98C84.2523 48.38 84.9723 48.58 85.7323 48.58C86.5123 48.58 87.2423 48.39 87.9223 48.01C88.6023 47.61 89.1423 47.05 89.5423 46.33C89.9423 45.59 90.1423 44.71 90.1423 43.69ZM104.834 52.27C103.474 52.27 102.254 52.03 101.174 51.55C100.094 51.05 99.2343 50.38 98.5943 49.54C97.9743 48.7 97.6343 47.77 97.5743 46.75H101.804C101.884 47.39 102.194 47.92 102.734 48.34C103.294 48.76 103.984 48.97 104.804 48.97C105.604 48.97 106.224 48.81 106.664 48.49C107.124 48.17 107.354 47.76 107.354 47.26C107.354 46.72 107.074 46.32 106.514 46.06C105.974 45.78 105.104 45.48 103.904 45.16C102.664 44.86 101.644 44.55 100.844 44.23C100.064 43.91 99.3843 43.42 98.8043 42.76C98.2443 42.1 97.9643 41.21 97.9643 40.09C97.9643 39.17 98.2243 38.33 98.7443 37.57C99.2843 36.81 100.044 36.21 101.024 35.77C102.024 35.33 103.194 35.11 104.534 35.11C106.514 35.11 108.094 35.61 109.274 36.61C110.454 37.59 111.104 38.92 111.224 40.6H107.204C107.144 39.94 106.864 39.42 106.364 39.04C105.884 38.64 105.234 38.44 104.414 38.44C103.654 38.44 103.064 38.58 102.644 38.86C102.244 39.14 102.044 39.53 102.044 40.03C102.044 40.59 102.324 41.02 102.884 41.32C103.444 41.6 104.314 41.89 105.494 42.19C106.694 42.49 107.684 42.8 108.464 43.12C109.244 43.44 109.914 43.94 110.474 44.62C111.054 45.28 111.354 46.16 111.374 47.26C111.374 48.22 111.104 49.08 110.564 49.84C110.044 50.6 109.284 51.2 108.284 51.64C107.304 52.06 106.154 52.27 104.834 52.27ZM135.462 35.14C137.502 35.14 139.142 35.77 140.382 37.03C141.642 38.27 142.272 40.01 142.272 42.25V52H138.072V42.82C138.072 41.52 137.742 40.53 137.082 39.85C136.422 39.15 135.522 38.8 134.382 38.8C133.242 38.8 132.332 39.15 131.652 39.85C130.992 40.53 130.662 41.52 130.662 42.82V52H126.462V42.82C126.462 41.52 126.132 40.53 125.472 39.85C124.812 39.15 123.912 38.8 122.772 38.8C121.612 38.8 120.692 39.15 120.012 39.85C119.352 40.53 119.022 41.52 119.022 42.82V52H114.822V35.38H119.022V37.39C119.562 36.69 120.252 36.14 121.092 35.74C121.952 35.34 122.892 35.14 123.912 35.14C125.212 35.14 126.372 35.42 127.392 35.98C128.412 36.52 129.202 37.3 129.762 38.32C130.302 37.36 131.082 36.59 132.102 36.01C133.142 35.43 134.262 35.14 135.462 35.14ZM148.388 33.4C147.648 33.4 147.028 33.17 146.528 32.71C146.048 32.23 145.808 31.64 145.808 30.94C145.808 30.24 146.048 29.66 146.528 29.2C147.028 28.72 147.648 28.48 148.388 28.48C149.128 28.48 149.738 28.72 150.218 29.2C150.718 29.66 150.968 30.24 150.968 30.94C150.968 31.64 150.718 32.23 150.218 32.71C149.738 33.17 149.128 33.4 148.388 33.4ZM150.458 35.38V52H146.258V35.38H150.458ZM163.817 35.14C165.797 35.14 167.397 35.77 168.617 37.03C169.837 38.27 170.447 40.01 170.447 42.25V52H166.247V42.82C166.247 41.5 165.917 40.49 165.257 39.79C164.597 39.07 163.697 38.71 162.557 38.71C161.397 38.71 160.477 39.07 159.797 39.79C159.137 40.49 158.807 41.5 158.807 42.82V52H154.607V35.38H158.807V37.45C159.367 36.73 160.077 36.17 160.937 35.77C161.817 35.35 162.777 35.14 163.817 35.14ZM180.57 41.5C180.57 39.44 181.03 37.6 181.95 35.98C182.89 34.34 184.16 33.07 185.76 32.17C187.38 31.25 189.19 30.79 191.19 30.79C193.53 30.79 195.58 31.39 197.34 32.59C199.1 33.79 200.33 35.45 201.03 37.57H196.2C195.72 36.57 195.04 35.82 194.16 35.32C193.3 34.82 192.3 34.57 191.16 34.57C189.94 34.57 188.85 34.86 187.89 35.44C186.95 36 186.21 36.8 185.67 37.84C185.15 38.88 184.89 40.1 184.89 41.5C184.89 42.88 185.15 44.1 185.67 45.16C186.21 46.2 186.95 47.01 187.89 47.59C188.85 48.15 189.94 48.43 191.16 48.43C192.3 48.43 193.3 48.18 194.16 47.68C195.04 47.16 195.72 46.4 196.2 45.4H201.03C200.33 47.54 199.1 49.21 197.34 50.41C195.6 51.59 193.55 52.18 191.19 52.18C189.19 52.18 187.38 51.73 185.76 50.83C184.16 49.91 182.89 48.64 181.95 47.02C181.03 45.4 180.57 43.56 180.57 41.5ZM211.997 52.27C210.397 52.27 208.957 51.92 207.677 51.22C206.397 50.5 205.387 49.49 204.647 48.19C203.927 46.89 203.567 45.39 203.567 43.69C203.567 41.99 203.937 40.49 204.677 39.19C205.437 37.89 206.467 36.89 207.767 36.19C209.067 35.47 210.517 35.11 212.117 35.11C213.717 35.11 215.167 35.47 216.467 36.19C217.767 36.89 218.787 37.89 219.527 39.19C220.287 40.49 220.667 41.99 220.667 43.69C220.667 45.39 220.277 46.89 219.497 48.19C218.737 49.49 217.697 50.5 216.377 51.22C215.077 51.92 213.617 52.27 211.997 52.27ZM211.997 48.61C212.757 48.61 213.467 48.43 214.127 48.07C214.807 47.69 215.347 47.13 215.747 46.39C216.147 45.65 216.347 44.75 216.347 43.69C216.347 42.11 215.927 40.9 215.087 40.06C214.267 39.2 213.257 38.77 212.057 38.77C210.857 38.77 209.847 39.2 209.027 40.06C208.227 40.9 207.827 42.11 207.827 43.69C207.827 45.27 208.217 46.49 208.997 47.35C209.797 48.19 210.797 48.61 211.997 48.61ZM230.108 52.27C228.748 52.27 227.528 52.03 226.448 51.55C225.368 51.05 224.508 50.38 223.868 49.54C223.248 48.7 222.908 47.77 222.848 46.75H227.078C227.158 47.39 227.468 47.92 228.008 48.34C228.568 48.76 229.258 48.97 230.078 48.97C230.878 48.97 231.498 48.81 231.938 48.49C232.398 48.17 232.628 47.76 232.628 47.26C232.628 46.72 232.348 46.32 231.788 46.06C231.248 45.78 230.378 45.48 229.178 45.16C227.938 44.86 226.918 44.55 226.118 44.23C225.338 43.91 224.658 43.42 224.078 42.76C223.518 42.1 223.238 41.21 223.238 40.09C223.238 39.17 223.498 38.33 224.018 37.57C224.558 36.81 225.318 36.21 226.298 35.77C227.298 35.33 228.468 35.11 229.808 35.11C231.788 35.11 233.368 35.61 234.548 36.61C235.728 37.59 236.378 38.92 236.498 40.6H232.478C232.418 39.94 232.138 39.42 231.638 39.04C231.158 38.64 230.508 38.44 229.688 38.44C228.928 38.44 228.338 38.58 227.918 38.86C227.518 39.14 227.318 39.53 227.318 40.03C227.318 40.59 227.598 41.02 228.158 41.32C228.718 41.6 229.588 41.89 230.768 42.19C231.968 42.49 232.958 42.8 233.738 43.12C234.518 43.44 235.188 43.94 235.748 44.62C236.328 45.28 236.628 46.16 236.648 47.26C236.648 48.22 236.378 49.08 235.838 49.84C235.318 50.6 234.558 51.2 233.558 51.64C232.578 52.06 231.428 52.27 230.108 52.27ZM244.985 38.83V46.87C244.985 47.43 245.115 47.84 245.375 48.1C245.655 48.34 246.115 48.46 246.755 48.46H248.705V52H246.065C242.525 52 240.755 50.28 240.755 46.84V38.83H238.775V35.38H240.755V31.27H244.985V35.38H248.705V38.83H244.985ZM250.646 43.63C250.646 41.95 250.976 40.46 251.636 39.16C252.316 37.86 253.226 36.86 254.366 36.16C255.526 35.46 256.816 35.11 258.236 35.11C259.476 35.11 260.556 35.36 261.476 35.86C262.416 36.36 263.166 36.99 263.726 37.75V35.38H267.956V52H263.726V49.57C263.186 50.35 262.436 51 261.476 51.52C260.536 52.02 259.446 52.27 258.206 52.27C256.806 52.27 255.526 51.91 254.366 51.19C253.226 50.47 252.316 49.46 251.636 48.16C250.976 46.84 250.646 45.33 250.646 43.63ZM263.726 43.69C263.726 42.67 263.526 41.8 263.126 41.08C262.726 40.34 262.186 39.78 261.506 39.4C260.826 39 260.096 38.8 259.316 38.8C258.536 38.8 257.816 38.99 257.156 39.37C256.496 39.75 255.956 40.31 255.536 41.05C255.136 41.77 254.936 42.63 254.936 43.63C254.936 44.63 255.136 45.51 255.536 46.27C255.956 47.01 256.496 47.58 257.156 47.98C257.836 48.38 258.556 48.58 259.316 48.58C260.096 48.58 260.826 48.39 261.506 48.01C262.186 47.61 262.726 47.05 263.126 46.33C263.526 45.59 263.726 44.71 263.726 43.69Z" fill="white"/>
</svg>
