<svg width="275" height="77" viewBox="0 0 275 77" fill="none" xmlns="http://www.w3.org/2000/svg">
<line x1="3.17539" y1="1.41176" x2="22.4797" y2="37.6074" stroke="#F5F3FF" stroke-width="2.5"/>
<line y1="-1.25" x2="41.0217" y2="-1.25" transform="matrix(-0.470588 0.882353 0.882353 0.470588 43.2174 2)" stroke="#F5F3FF" stroke-width="2.5"/>
<path d="M22.6268 35.5L22.6268 76" stroke="#F5F3FF" stroke-width="2.5"/>
<line x1="42.25" y1="2" x2="42.25" y2="14" stroke="#F5F3FF" stroke-width="2.5"/>
<line x1="3.25" y1="2" x2="3.25" y2="14" stroke="#F5F3FF" stroke-width="2.5"/>
<line x1="13.529" y1="19.7863" x2="32.5652" y2="19.7863" stroke="#F5F3FF" stroke-width="2.5"/>
<path d="M32.4979 19.7681C35.826 20.2657 42.4281 23.5407 42.2122 33.7457C42.0966 39.2085 38.4449 42.7373 34.117 44.9067C30.1908 47.4937 23.0265 49.9062 18.0615 52.6087C14.5535 54.78 12.9345 56.5441 12.2599 58.3083C11.9209 59.1949 7.40278 70.5218 22.7837 75" stroke="#F5F3FF" stroke-width="2.5"/>
<path d="M6.99999 19.5C7.00073 19.602 6.9697 19.7018 6.91119 19.7854C6.85269 19.869 6.76962 19.9323 6.67351 19.9665L4.68668 20.6881L3.96533 22.6755C3.92999 22.7708 3.86636 22.8529 3.78299 22.9109C3.69962 22.9689 3.60049 23 3.49894 23C3.39739 23 3.29826 22.9689 3.21489 22.9109C3.13152 22.8529 3.06789 22.7708 3.03255 22.6755L2.3112 20.6881L0.324367 19.9665C0.22916 19.9312 0.147049 19.8675 0.0890644 19.7841C0.0310799 19.7007 0 19.6016 0 19.5C0 19.3984 0.0310799 19.2993 0.0890644 19.2159C0.147049 19.1325 0.22916 19.0688 0.324367 19.0335L2.3112 18.3119L3.03255 16.3245C3.06789 16.2292 3.13152 16.1471 3.21489 16.0891C3.29826 16.0311 3.39739 16 3.49894 16C3.60049 16 3.69962 16.0311 3.78299 16.0891C3.86636 16.1471 3.92999 16.2292 3.96533 16.3245L4.68668 18.3119L6.67351 19.0335C6.76962 19.0677 6.85269 19.131 6.91119 19.2146C6.9697 19.2982 7.00073 19.398 6.99999 19.5Z" fill="#F5F3FF"/>
<path d="M78.92 30.94L71.63 45.04V52H66.5V45.04L59.21 30.94H65.03L69.11 39.76L73.16 30.94H78.92ZM79.967 43.6C79.967 41.88 80.287 40.37 80.927 39.07C81.587 37.77 82.477 36.77 83.597 36.07C84.717 35.37 85.967 35.02 87.347 35.02C88.527 35.02 89.557 35.26 90.437 35.74C91.337 36.22 92.027 36.85 92.507 37.63V35.26H97.637V52H92.507V49.63C92.007 50.41 91.307 51.04 90.407 51.52C89.527 52 88.497 52.24 87.317 52.24C85.957 52.24 84.717 51.89 83.597 51.19C82.477 50.47 81.587 49.46 80.927 48.16C80.287 46.84 79.967 45.32 79.967 43.6ZM92.507 43.63C92.507 42.35 92.147 41.34 91.427 40.6C90.727 39.86 89.867 39.49 88.847 39.49C87.827 39.49 86.957 39.86 86.237 40.6C85.537 41.32 85.187 42.32 85.187 43.6C85.187 44.88 85.537 45.9 86.237 46.66C86.957 47.4 87.827 47.77 88.847 47.77C89.867 47.77 90.727 47.4 91.427 46.66C92.147 45.92 92.507 44.91 92.507 43.63ZM108.158 52.24C106.698 52.24 105.398 51.99 104.258 51.49C103.118 50.99 102.218 50.31 101.558 49.45C100.898 48.57 100.528 47.59 100.448 46.51H105.518C105.578 47.09 105.848 47.56 106.328 47.92C106.808 48.28 107.398 48.46 108.098 48.46C108.738 48.46 109.228 48.34 109.568 48.1C109.928 47.84 110.108 47.51 110.108 47.11C110.108 46.63 109.858 46.28 109.358 46.06C108.858 45.82 108.048 45.56 106.928 45.28C105.728 45 104.728 44.71 103.928 44.41C103.128 44.09 102.438 43.6 101.858 42.94C101.278 42.26 100.988 41.35 100.988 40.21C100.988 39.25 101.248 38.38 101.768 37.6C102.308 36.8 103.088 36.17 104.108 35.71C105.148 35.25 106.378 35.02 107.798 35.02C109.898 35.02 111.548 35.54 112.748 36.58C113.968 37.62 114.668 39 114.848 40.72H110.108C110.028 40.14 109.768 39.68 109.328 39.34C108.908 39 108.348 38.83 107.648 38.83C107.048 38.83 106.588 38.95 106.268 39.19C105.948 39.41 105.788 39.72 105.788 40.12C105.788 40.6 106.038 40.96 106.538 41.2C107.058 41.44 107.858 41.68 108.938 41.92C110.178 42.24 111.188 42.56 111.968 42.88C112.748 43.18 113.428 43.68 114.008 44.38C114.608 45.06 114.918 45.98 114.938 47.14C114.938 48.12 114.658 49 114.098 49.78C113.558 50.54 112.768 51.14 111.728 51.58C110.708 52.02 109.518 52.24 108.158 52.24ZM139.437 35.08C141.517 35.08 143.167 35.71 144.387 36.97C145.627 38.23 146.247 39.98 146.247 42.22V52H141.147V42.91C141.147 41.83 140.857 41 140.277 40.42C139.717 39.82 138.937 39.52 137.937 39.52C136.937 39.52 136.147 39.82 135.567 40.42C135.007 41 134.727 41.83 134.727 42.91V52H129.627V42.91C129.627 41.83 129.337 41 128.757 40.42C128.197 39.82 127.417 39.52 126.417 39.52C125.417 39.52 124.627 39.82 124.047 40.42C123.487 41 123.207 41.83 123.207 42.91V52H118.077V35.26H123.207V37.36C123.727 36.66 124.407 36.11 125.247 35.71C126.087 35.29 127.037 35.08 128.097 35.08C129.357 35.08 130.477 35.35 131.457 35.89C132.457 36.43 133.237 37.2 133.797 38.2C134.377 37.28 135.167 36.53 136.167 35.95C137.167 35.37 138.257 35.08 139.437 35.08ZM152.415 33.52C151.515 33.52 150.775 33.26 150.195 32.74C149.635 32.2 149.355 31.54 149.355 30.76C149.355 29.96 149.635 29.3 150.195 28.78C150.775 28.24 151.515 27.97 152.415 27.97C153.295 27.97 154.015 28.24 154.575 28.78C155.155 29.3 155.445 29.96 155.445 30.76C155.445 31.54 155.155 32.2 154.575 32.74C154.015 33.26 153.295 33.52 152.415 33.52ZM154.965 35.26V52H149.835V35.26H154.965ZM168.882 35.08C170.842 35.08 172.402 35.72 173.562 37C174.742 38.26 175.332 40 175.332 42.22V52H170.232V42.91C170.232 41.79 169.942 40.92 169.362 40.3C168.782 39.68 168.002 39.37 167.022 39.37C166.042 39.37 165.262 39.68 164.682 40.3C164.102 40.92 163.812 41.79 163.812 42.91V52H158.682V35.26H163.812V37.48C164.332 36.74 165.032 36.16 165.912 35.74C166.792 35.3 167.782 35.08 168.882 35.08ZM184.385 41.44C184.385 39.36 184.835 37.51 185.735 35.89C186.635 34.25 187.885 32.98 189.485 32.08C191.105 31.16 192.935 30.7 194.975 30.7C197.475 30.7 199.615 31.36 201.395 32.68C203.175 34 204.365 35.8 204.965 38.08H199.325C198.905 37.2 198.305 36.53 197.525 36.07C196.765 35.61 195.895 35.38 194.915 35.38C193.335 35.38 192.055 35.93 191.075 37.03C190.095 38.13 189.605 39.6 189.605 41.44C189.605 43.28 190.095 44.75 191.075 45.85C192.055 46.95 193.335 47.5 194.915 47.5C195.895 47.5 196.765 47.27 197.525 46.81C198.305 46.35 198.905 45.68 199.325 44.8H204.965C204.365 47.08 203.175 48.88 201.395 50.2C199.615 51.5 197.475 52.15 194.975 52.15C192.935 52.15 191.105 51.7 189.485 50.8C187.885 49.88 186.635 48.61 185.735 46.99C184.835 45.37 184.385 43.52 184.385 41.44ZM215.726 52.24C214.086 52.24 212.606 51.89 211.286 51.19C209.986 50.49 208.956 49.49 208.196 48.19C207.456 46.89 207.086 45.37 207.086 43.63C207.086 41.91 207.466 40.4 208.226 39.1C208.986 37.78 210.026 36.77 211.346 36.07C212.666 35.37 214.146 35.02 215.786 35.02C217.426 35.02 218.906 35.37 220.226 36.07C221.546 36.77 222.586 37.78 223.346 39.1C224.106 40.4 224.486 41.91 224.486 43.63C224.486 45.35 224.096 46.87 223.316 48.19C222.556 49.49 221.506 50.49 220.166 51.19C218.846 51.89 217.366 52.24 215.726 52.24ZM215.726 47.8C216.706 47.8 217.536 47.44 218.216 46.72C218.916 46 219.266 44.97 219.266 43.63C219.266 42.29 218.926 41.26 218.246 40.54C217.586 39.82 216.766 39.46 215.786 39.46C214.786 39.46 213.956 39.82 213.296 40.54C212.636 41.24 212.306 42.27 212.306 43.63C212.306 44.97 212.626 46 213.266 46.72C213.926 47.44 214.746 47.8 215.726 47.8ZM234.018 52.24C232.558 52.24 231.258 51.99 230.118 51.49C228.978 50.99 228.078 50.31 227.418 49.45C226.758 48.57 226.388 47.59 226.308 46.51H231.378C231.438 47.09 231.708 47.56 232.188 47.92C232.668 48.28 233.258 48.46 233.958 48.46C234.598 48.46 235.088 48.34 235.428 48.1C235.788 47.84 235.968 47.51 235.968 47.11C235.968 46.63 235.718 46.28 235.218 46.06C234.718 45.82 233.908 45.56 232.788 45.28C231.588 45 230.588 44.71 229.788 44.41C228.988 44.09 228.298 43.6 227.718 42.94C227.138 42.26 226.848 41.35 226.848 40.21C226.848 39.25 227.108 38.38 227.628 37.6C228.168 36.8 228.948 36.17 229.968 35.71C231.008 35.25 232.238 35.02 233.658 35.02C235.758 35.02 237.408 35.54 238.608 36.58C239.828 37.62 240.528 39 240.708 40.72H235.968C235.888 40.14 235.628 39.68 235.188 39.34C234.768 39 234.208 38.83 233.508 38.83C232.908 38.83 232.448 38.95 232.128 39.19C231.808 39.41 231.648 39.72 231.648 40.12C231.648 40.6 231.898 40.96 232.398 41.2C232.918 41.44 233.718 41.68 234.798 41.92C236.038 42.24 237.048 42.56 237.828 42.88C238.608 43.18 239.288 43.68 239.868 44.38C240.468 45.06 240.778 45.98 240.798 47.14C240.798 48.12 240.518 49 239.958 49.78C239.418 50.54 238.628 51.14 237.588 51.58C236.568 52.02 235.378 52.24 234.018 52.24ZM253.266 47.65V52H250.656C248.796 52 247.346 51.55 246.306 50.65C245.266 49.73 244.746 48.24 244.746 46.18V39.52H242.706V35.26H244.746V31.18H249.876V35.26H253.236V39.52H249.876V46.24C249.876 46.74 249.996 47.1 250.236 47.32C250.476 47.54 250.876 47.65 251.436 47.65H253.266ZM255.104 43.6C255.104 41.88 255.424 40.37 256.064 39.07C256.724 37.77 257.614 36.77 258.734 36.07C259.854 35.37 261.104 35.02 262.484 35.02C263.664 35.02 264.694 35.26 265.574 35.74C266.474 36.22 267.164 36.85 267.644 37.63V35.26H272.774V52H267.644V49.63C267.144 50.41 266.444 51.04 265.544 51.52C264.664 52 263.634 52.24 262.454 52.24C261.094 52.24 259.854 51.89 258.734 51.19C257.614 50.47 256.724 49.46 256.064 48.16C255.424 46.84 255.104 45.32 255.104 43.6ZM267.644 43.63C267.644 42.35 267.284 41.34 266.564 40.6C265.864 39.86 265.004 39.49 263.984 39.49C262.964 39.49 262.094 39.86 261.374 40.6C260.674 41.32 260.324 42.32 260.324 43.6C260.324 44.88 260.674 45.9 261.374 46.66C262.094 47.4 262.964 47.77 263.984 47.77C265.004 47.77 265.864 47.4 266.564 46.66C267.284 45.92 267.644 44.91 267.644 43.63Z" fill="#F5F3FF"/>
</svg>
